<mxfile host="65bd71144e">
    <diagram id="HIP3nbAZw_EuaXWnEj3U" name="Page-1">
        <mxGraphModel dx="866" dy="759" grid="1" gridSize="10" guides="1" tooltips="1" connect="1" arrows="1" fold="1" page="1" pageScale="1" pageWidth="850" pageHeight="1100" background="#ffffff" math="0" shadow="0">
            <root>
                <mxCell id="0"/>
                <mxCell id="1" parent="0"/>
                <mxCell id="7" value="http://ics2o.mths.ca" style="swimlane;whiteSpace=wrap;html=1;fillColor=#f5f5f5;fontColor=#333333;strokeColor=#666666;" parent="1" vertex="1">
                    <mxGeometry x="40" y="40" width="760" height="480" as="geometry"/>
                </mxCell>
                <mxCell id="8" value="What Kind Of Triangle Do You Have?" style="whiteSpace=wrap;html=1;fillColor=#b0e3e6;strokeColor=#0e8088;fontColor=#000000;fontSize=21;" vertex="1" parent="7">
                    <mxGeometry y="20" width="760" height="60" as="geometry"/>
                </mxCell>
                <mxCell id="10" value="Enter the side lengths to find out the type of triangle" style="text;html=1;align=center;verticalAlign=middle;resizable=0;points=[];autosize=1;strokeColor=none;fillColor=none;fontSize=21;fontColor=#000000;" vertex="1" parent="7">
                    <mxGeometry y="80" width="520" height="40" as="geometry"/>
                </mxCell>
                <mxCell id="11" value="" style="shape=image;verticalLabelPosition=bottom;labelBackgroundColor=default;verticalAlign=top;aspect=fixed;imageAspect=0;image=data:image/png,iVBORw0KGgoAAAANSUhEUgAAAhYAAAF6CAYAAABFmRFvAAAAAXNSR0IArs4c6QAAIABJREFUeJzsvWdw3Vma3vc7yDkDBECCIEAw55ybudN0z0xPz8yORrO7oywnldaWZavk8ieXS6WSXbZLtrQuqXY13tHkPNORZDfJZk4gQQJEDkSORI4Xxx8eYNjsJgLBS4IE31/VrW6SF/f+ccM5z3nD8zrvvccwDMMwDCMIhMz3BRiGYRiGsXAwYWEYhmEYRtAwYWEYhmEYRtAwYWEYhmEYRtAwYWEYhmEYRtAwYWEYhmEYRtAwYWEYhmEYRtAwYWEYhmEYRtAwYWEYhmEYRtAwYWEYhmEYRtAwYWEYhmEYRtAwYWEYhmEYRtAwYWEYhmEYRtAwYWEYhmEYRtAwYWEYhmEYRtAwYWEYhmEYRtAwYWEYhmEYRtAwYWEYhmEYRtAwYWEYhmEYRtAwYWEYhmEYRtAwYWEYhmEYRtAIm82dvPdP+zoMwzAMw5gnnHNBeyyLWBiGYRiGETRMWBiGYRiGETRMWBiGYRiGETRMWBiGYRiGETRMWBiGYRiGETRMWBiGYRiGETRMWBiGYRiGETRMWBiGYRiGETRMWBiGYRiGETRMWBiGYRiGETRMWBiGYRiGETRMWBiGYRiGETRMWBiGYRiGETRMWBiGYRiGETRMWBiGYRiGETRMWBiGYRiGETRMWBiGYRiGETRMWBiGYRiGETRMWBiGYRiGETRMWBiGYRiGETRMWBiGYRiGETRMWBiGYRiGETTC5vsCDMN4sfEeAgEYGoLxAERHQ2gYhNixxTBeSuyrbxjGEzE+DoMDnoZ7UFUFvb2esbH5virDMOYLExaGYTwRw8PQ2OD49a88f/0fPeVljr7e+b4qwzDmC0uFGMZLxPg42vQdhIXByDCEhEJEhG5zSV+MjcH9+3CzEKoq4ehxWJob9EsHYGgQenohKRFciNIvoaH6XSIins5zGobxeJiwMIyXiNFRqKkGHMTFQ0cbREVDWjqkpT3/dREdHXDnNmzZJjHR2ADRMZCUBCkp8311hmGACQvDeO6oqdaG2d6uP8fEQnoaLMuHxMTHe6yxMejv99RUOW7dhBs3VAuxdbvjlUOKMJTcgcZGz6rVjtVrYNUqPVdU1Nx/h8pKKC2F3h7IyYHFOZCa+vjCZXgYmpvhbgkU3YSyUk9rK/xP/7MjMRkuXoAb1yUy1qyBTZshbzksWjS36+5o12vf0KDHTEmFvHxPXJwjPHxuj2kYLxsmLAzjOaG9XZt8URHU10FvL4yMQGSkIgp79sLadbB4yfSPMzYGg4PQ1AjNTZ7GRigrhZJiqK6C8AjYOArRURAbA339UHwH7tVBeRmUrtLzZC+GjAxITdM1zEYU9PZC4Q11ivR0Q3e3hMWadbB9px4vNnb6xxgchPtd0NICjQ2eygq4c8dRVekZ6Fd0YtxDiIPQEP2OLc1QWeGoqZEwylsO2dkSMwmJSpc4N/VzDg1BZYVeh7K7em7nIClZj7dlm2fFSjfj4xiGYcLCMJ4bim/Dv/wfPTU12piXLNEJuqdHAqP4DfjGN+Hb35l+ZxschPp6+NUvPGc+hdu3oH/Ak5MDW7c5DhyE3Xtg9RrIX+5JSYOUFMdHH3o+eB9+9UtIT4e9+x3HXoVXXvGkZzgiI2f+Hervwb//v/0fN1/vFXUoWAH/8B87Dh6B5cunf4z2Nrh2FT543/PZGQke5zybtzgOH4Hjr0FBAcTGwRtf8cTGOU5+DJ9+4rl0QcIpJwfeedfxykFYv8ETEytRMBVdnfCDv4KTJ6C62pOaCgMD0N8HMTHw3/738I/+Cz2OCQvDmB4TFobxHFB6F65ehepq2LkLdu5ybN2mTfnaVc+P/zNUlCslMBXDw3DiY7h00XOnCFqaVdB46Ais3wDLCxxLl0LGogdpiZhYx5q1+vPefY7aGqVHqqo89XWe//CX8MEfYPde2LtPYmS6FEl0NOTlOw4d9qxdp7/7/e8ULfnJjz1LctyUwqKmGk587Ll2FWprtKmvXAnHXlWKJjcXluRAVpbqQ8LCICnZsXsvLMuDN77iKCmBijKoq4UP3/dcOKfoxbf+BNauVQTii1RVwbmzcPGiJykZ/vyQY+cuFbreLYEf/n+eG9fh01N6LePiZ/++GsbLiAkLw3gO8F6b+6HDsGefY+NGyF0msdDW6oiJ8bS2SCxMxdgY3CnyfHISCq9DfDxs3KTb8de0oSd8oUYjLEzRifR0WLde6ZPiO8BJRR+KbsGtQomQZcsUeZiO2Dg9zpFjjt17PKAUT2MD3Lyh6MNAvwouv3jy7+iA8+e0yd/vgsws2LJNUYc9+yA5+cuiJjJS0YmcHBWm5uXDuUS43w3Xr6hbpfQu7N6tf0t6xDW3NMPtIomRA6/A21+DHTvUdbJ6DTTUq2bDhQAWrTCMGTFhYRjPAavXwKrV8Gffd9yrg9paOHMa2tqUIhkY0G1kZOrH8B6Ghhwjw0odREVBYhKkpjni4/1EO+b0O2NMLKSkQVycUgAREUqtjI7O7veIj4fNWxRZiInVcxWsgOUr4NZNFV62tqod9YvCIjAG/X2OQMATGqroR3IyJKdATLQnNHT6aw8NhUWZisjExnqiY1TjMTgEgfGpf25wALo6PYExRUW2b/fExDhCQmHNWvjn/8KRnKL6EMMwZsaEhWE8B4wMw53bnp//TGmA9nad7NPSAa+ukJ6e6R8jKgq++W0VXt657aisVFHjX/9Hz8cfQH4BrF7j2bLVkZPzIC3Q3KSizRvXPWWlUFcHnR0SF29/DTZscmzaPHMaZPIacpZKYEySmvrgxD88rELJR1GwAv7in8HtW05FlKVw+lPPpYuQlQkbNno2bnFs3AQJCRI9Y2NKs+jmqapUdKSnB9atd3ztHYmD3XskUh5Fdze0tug609IhOsYpOoGeI3uxeWQYxuNgwsIwngMaGuDSRfjVL7Qpq80RFi9WxKC/H8KmKT4EpTXWroOsbFi5Sptt0S35PrS1SayUlaozZM9e2LhZnRs3b8D587r/QL/SC3l5sGoNbNwIm7YqVRITM/Pv4SaMtz7fQTI8AsNDHvz0P5uSKgGQk6MIR+F1uFviuHfPU1wMrW0qrKyuchx/DRLioaYGTnykaEj9PdVFJCVLTGzeAus2wIqVek2nahcdHdVrHBjXzJPRUV2/cxJCNdUwNqo0z7I8ExmGMRMmLAzjOeDWTbhw3lFX6/n7/8jx7jfhwEGlNz45qWjGDPvyH0lO1m3jJsebb0m0nD2tDfjsac+Jjzw174JzjpJi+OhDOP+ZJy0dDh+Fr7zl2Lbdk5bmiHxML4vRkYloy6CuHaCmxlNWpk07MlKGXNOxeIluh49IEN284fjwfc+Z03DpAvz4R56lSx0Zi+BXP1f3S3e3IjJvvuU4fBR27Jz9NYeHQ1i4o7VVrbmdnRJS4eHqyvnxjzy9PepE+d6fOzPiMowZMGFhGM8BEZG6OafNNzJSG/ON63D2jLoT5jJ/IzpaUY9jr6qI80/+lqPolk7eizKVSoiNhWPHHfnLFS3IzFK3xVwMoVpa4Wc/8QQCjp4tSklcOq9Tf1LyA2+M2bZsJiTouhctchw97qmugro6R85S/W4bN0FauiM2TqmUzEyJgschKxs2bJCHyN0S+OA9z8HDqlW5cV2irKAAsrIcYbZiGsaM2NfEMJ4DMjMhJ8cTEws11Z5PTjmqq5XGKLolodHfr+LN7vsqspzNxh8WpjRAfLzSG8PDsLxA4fyUVKU38vL158VLmJVXxXSMjaqj4+J5T0W5o7dH6YqMDLWrrlg5u5TKJJGRKsbMWAQrVzvWb4B79ySKQpxSHes2SLRkZs7tmhcvgV17obxcBl+fnFKNyeCg0kY93bAo07FilaVBDGM2mLAwjOeA1atltZ2VpRPyh+8r9REboxP1th2OG9c9w8NKbeQsnZ2w+CKRkbK9nmSu1tefx6HCzLAwdXBs2QpXr8DtIuVCdu6G196UYVVW1tyfJzJS3SZLch78XeKj+kcfk5wcCa+RYcdHH8D5c54P3/OMjipismWbY89e1WwYhjEzzns/Y+p2FncxDOMJCASgrRVKSuSb0NkJw0PyjkhfBHGx8mZISlRRZXQ0z01YfmxMJ/2qSvlGZGQoqtDaon/PWar20uwsiIx6fq7784yO6npbW+Vr0VAPYWEyzMpY5MjLU4rIMBYqLoiWsiYsDOM5o6NDw7tGhlWT8CI6Pfb3K5UAalt9koFmz5rRUb0H4eHyw4iMNBtvY+FjwsIwDMMwjKARTGHxmEOMDcMwDMMwpsaEhWEYhmEYQcOEhWEYTwXv5YRpmVTDeLkwYWEYxlNheEgTUvv65vtKDMN4ljyHjV+GYbzo9HRDRTmcOAHxcZpd8sqhuXlvGIbxYmHCwjCMoOK9Jox++gn8b//aMzYKx47L5CsxcfZ23oZhvJhYKsQwjKARCMDggOdmIVy+pKFkIyMaTX6vztIihvEyYBELwzCCQk83NDZC8W04ecJTUixjrPFxOXNWVkBKiuyzDcNYuJiwMAzjifBet/p6OHcWfvZT1VcMDWrOSUuzIhUlxZpAunjJfF+xYRhPE0uFGIbxRIyNyQL74gX44H1PaYlmmezZC3/vHzjWrFM048Z1T0f7fF+tYRhPGxMWhmHMmf5+qKuFM5/C2TNKf+Bg7To4csxx6Iimhw4NQfEd6Oqa7ys2DONpY6kQwzAeG+9VqNncpBHpv/013CyU0FixAg4echw5BitWToxmd1BTDV2dinA8jxNODcMIDvb1NgzjsRkZgeZm+OA9+OA9T/EdSEp27NoN734LVq+BzEwIDYXMbMfSpVBS7GlsVHdI7jIIsXipYSxI7KttGMZjMToKrS0q1PzsrOfOHUUh1q2Ho8dhx07IWQoxsfKsyFmqos3QULhX56msUKeIYRgLExMWhmHMCu8VqWhrVb3E++/B7SIYD0DBStj/Cuw/oJbSzzts5uYqJRIaCrU1UFnhTVgYxgLGUiGGYcyKoUGoroYTH8mn4vYtpT9eOQRvvAlbt8OiTAgJffjncnIgf7n+vrFBxZ7ehIVhLFhMWBiGMSOTLaWfnYHTn3ruFEFoGGzbDsdfg+07ISMDIiO//LOJifq3xAS43w1NTTA6BhHe7L0NYyFiqRDDMKYkEJBrZmuLp/Su5+MPPbeLYCwAa9bAsVfh1deU7oiNffRjREZBYpKiGSMj0Namxxwdfba/i2EYzwaLWBiGMSXd3fDJCSgulnPmtWuqn9i4Ed7+mmPDRoiLm7nDIzYOVq1W1KO3B27fgo2bJ1pRDcNYUJiwCALj4zA2qpNYRzsMDGghTUmBzCwVrT2KwUHdd3BAhXGPIiYGomP030fhPbS363nvdynsnJYO6RnB+d2Ml5fhYWhqhJMnVKTZ2SkRsWuXRqBv3wGLFyslMhMJ8RISpXclVm7cgCU5JiwMYyFiwuIJGR+H/j6or/fcLYHqKkf3fUhKVq/+1m3a5B8VJu7sgLo6qK+D8SmERc7Sida9RwiLkWHo7oFbhVBWCg0NkJUFK1fDhg0SNhGPyHkbxnRMml81Ncr06sJ5T22NRMXe/Y63vgbHX/VERc/eiyIhATZvcZw64WlqgsIbnr37rMDCMBYiJiyekL4+Lb7/5/+uqEFYmCc+HlpbJTrWrYc/+77jwMEv/2xpKXz0Pnz4gWds7NGP/+rrjtffUGX9F6mtVYX+e7/3tLZq8e7vh+QUWLcO/sE/dqxYGdzf11j4BAKy3v7Nr+GHP/DU39Pfp6XB7j3q8IiKdo9lcBUfD+snxG5fL5SWKHJhGMbCw4TFE9LRod789jYtuBs2QlIS3LqlPPLFCzINehSLF8PO3RAXP7Vh0Np1j54GOTqqCZK/+w0ExmHTZti8RWLjXi3cLZGJ0ZIcDYQyjNnQ3a0I2oULcOqEp7xMn7XQUBgahs5Oz/37joEBRdFmKy7CwvW9SEvTKPXmJqXuhodU3GkYxsLBhMUTMjgAoyOQlw8HXoF9ByAszBEVM5lL9vT1Pvpn8/IlLg4edjBFKiQi8sstfN5Df7+nugounIfv/qnjnXfh8BGorICzp+HcZ57AuKrwTVgYs2F8XOmPixfgJz/yVJRrpkdsnARATzcU3oBFmZ7ERMfiJRAfN7t0m3MSJ+kZkJIqUdzeBvfvQ8Yiazs1jIWECYsnJC9/cmF11NbC5UvQ3KzwcXOTFuSpaGqEykqoqpi6xiJ/OSxfrueZxHtoa3F0dEBoqGflSliWp9Pj0lz42jtw9LgjNW3qok/D+Dzj4zA06Ckpdpw6CRVlijKs3wCrVjtK72oeyNUrahWtqvTs2u3YvkOf0dmSvVif0apK1RdVV0tsmLAwjIWDCYsnpL0N7tyGc+dgbNQTFaV6iMhInfZ6p4hWgPLY1ZVw7SoEAlMoC+9ISX5YWACMjCpSgpvoHInS4hwVpTqL/n51iPhxYIquFMMIBNT+2dQIN67DJ6fkUxETA+s2wK5djjXroLjYkZTsuXVTqb+ebqiu8lSUO9ZvkDhIStJnLj5Bn8OQEAnr3l7o6VF0orZGxc7ea9ppZYVmixiGsXAwYfGEVFbAJyfhxEeeXbthz17Iy3dUlMOFcCgvm0IwMHFKc+CcJ2SKE9vkfb5IRDiER2iB7unV4j02BgP9qq+4dgWOHvfk5TnCwr/884YxOfujrg4uXYDf/EopirGAHDWPHHMcOKAIQ+4ySElxOKe6i/p6dSKVl3lWr3HkL4clS9RenZEhcREaqkLNtjZoaYbGRii6qf96D9VVer6pWq0Nw3gxMWHxhLS0aP5BerpqHL7+rmM84LlxXT37U3V7AKxcpcX41demjgM/ysPCOUjP8KSmQmAMrl72LF4sT4ArVxzv/x7OnPbkL3csXqwpk4bxRSZdNa9fg1//SpGKxETYvc3x3e/BmrWKREREwPICSEiEjAzH5UueSxclXhvqob3dc+WyjLPCwxWpm/RuGR/Xd2B0VLehQRga0t/X1mjSqR+3PIhhLCRMWDwhWVmQn6/IxflzqpofHICSEplfeQ8Dg2pLjY19OJccHa1b6mM+p3MQG+dYuw6+/g1PZ6e6QwpvQF2tp6cHCgpUY2EV98aj6O+XKL5yGc58KhEcGioxcfCQupEWLVJUDJTaWLRIviwZGY5Vq9XS3NgArW2etlZ9xnu69difj0JEx0BsjATukhwF4Boa1BXSfV/XkZau5zAM48XHhMUTsrwAdu+F8nKFdiejFIsyZWGcmKge/uFhRR6CVaQWHq5N4E//3PG732rS5J3bOi2uW68ZDsuWWUeI8TCT6Y+GekUq3vv9g9Hna9bB3n2OXXu00U+KikkiIlR8mb1Y9RebNqsIs6rSUV3laZ9wf+3qerh9OjFRhnHJyZCX5xgZhYsXVAza3w8VFRLAJiwMY2HgvJ85wzmLu7y0jI6q5bTrvorRujq1iKany59ibFSmQAmJU1t7z5WxMYWVe3t06mtuguRkT2oapKU54uKw+grjIUZHVaj5/h/gFz/3lJfqs7lps+ObfyIfluwsdTpNJ4LHJ1qZP38LjCm9Egg8fN+QEH32Q0MlThoa4OMP9fxjo/C3/rbjra9KiBuGMT+4ILZmWcTiCQkPh/BELc6JCUp7xEzURUREzPzzT0JYmGyW4+LktrlkCUTHuD92pBjG5xkbU+rh3Gfw2VkVX4Y4Rbhee0MRiMzMR48+/yIhIYowfD7K0NKiIs2uLvlbpKXL3O2LgtoDGzap6Lm8HG7d9Ow7YHUWhrFQsO0niCQl6zYffHGRN4xJvFfRZFsblJV6TnzkuHNbomLlKs3/2P8KZGXObbZMIKDI2Z0iKLql9EZUNCzLlblWQoIE+CRxsbBipUap9/dB8W0JHsMwFgYmLAxjgTM2CjU1cPJj+P3voLTEE58Au/c6jh6HXbshO3vuUa7BwUl7ec/NQth3wHHlsudiGKSkOtatf3jablS0vF5SUhRFqayc3u/FMIwXi8cYI2QYxovG6Kjm2Zw9A6c/8ZSWaGPfuQu+9W3Yt1/Tc8PD515Y3N+nuTjhEY7tOx1HjsK27Y6UVPm5dHU9fP+QEKUJM7McGYtUn9HcrFSKYRgvPhaxMIwFiPeKJLS1QnmZRMWd20pbrFkDBw85jhxTfU7oE64C/QNQUuxJTXVs2CiTuEAAroQqGrFx06N/bkkO5OY6ams89XVQVytzLbP3fr4ZG5u4jSp19rRryYwXD4tYGMYCZGxM9tmnTsIP/lozbAYGYfkKeO0Nx7YdD9wxn5ThITlxhoWp+DMkVB1RYeFQUebpmqJ+Ii8fClZKSFRVeiorrPvsRaC/X51FpXehs3O+r8Z4HrGIhWEsMAb6lVo4dQI+OytHzYQEx5atniPHYPMWdWvMduT5THiv0+vYGAQm/CsCAc2piYqZunZj6VKJCxeiYWSVFcG5HuPpUlcLly7C5Yvw7rcg8435viLjecOExXNCZYWq9gFWrIDUtPm9HuPFZHRUouLaVfjkpKfoFgwOyU3z9Tcdb35Fg/JCguipEhoqd83hYU/3fcf4uMTN0LAKNKfqVlqUCUsWQ1QkNDXBvXsSJ2Fhlg55nmltkbnab3/j2bTZ8ZoJC+MLWCrkOeHf/VvP9/5Et/Pn5/tqjBeR8XFNEL1ZqIFihYVqAy0ogNffhG075HMSTFEB8r1YskRioqbaExiDjk5PV6cnOdlN6f4aE6P27LR0FXB2dcJAv37eMIwXF4tYzDOjo5qx0NqqUxtoFHtfnwrrDGM29PRAwz04fRrOnfUU3oDERM2T2f+KppU+rcLI+HjYvtPx6SnPiY+hvt5TeleRh9ff8GRnP/pJnVOdx4qVKjTt7YGKckd+gey/jS9zv0uRnc5O1baEhCgqlJmtluHp6OuD7m4YGX7Ycv2LhIfLcC86enYtyH29smUfGJA1+9Kl8i6ZyWittWV2bcbx8ZCxaPr7DA/rO9DSLHE9MqLryMiQeaHxbDFhMc8MDEBtrb70k7S1SWiYsDBmw9iY7NwvXYTf/9Zzt1ijz7fvhGPH4cBBDRB7WgZqsXFy0qypcTQ0egqv6+/XbVA9R8o0U/YSE3Wfe3Xa9IqKIDXdhMUXGR/XyIC7JZrt0tWltWM8oM1z7XrYvmPifZ4iQtTcBLduQmeHNt6pSEiAHbs82Ysd8fHTX9e9Os/FC46bhRI7kVGwdq0+D7m5EhdTidlbN+X+OhOrVsPR44/+N+8lKmpr9NmproKOdtX8LC9QcXBBAWRlm4Hgs8SExTzT3Q3Xr8prYJLqStVc5OfP33UZLwbeq0q/rBQ++hDuFquAcs0a+Po7sHM3LMoIbk3FF4mMVK3E9/8uvPW2o7xUxaGLcySOpysSTU2FA684Ll3w1NbC1SvK2y9b9vSu90VkbAz+0195PnhPHThZmbJG7+qUSFi9Bl5/A775nalfu+I78Ff/wVNaKu+RqchZCv/sf3DExjKjsPjlL+DMac/IqK5leEg/84//K8c77z7a0n2S3/za88ufzfy7v/stOHr80epkfFyRj/f/AH/5/3j6+tT+GhcPv/i51tBDR+HPv+9YmjvzcxnBwYTFPNPXCyXFD1sa19frBOe9FbEZjyYQUOqguVmRirOnlf6IidEmc/CwRpsnJT25T8VMOKfniIvToh4drc0lJnbmn42Lh5WrFa6+3wXXrsA33n261/ui0dGuSMWtQr3Wb3/VsXmr3tvu+/CLn3laW2SCduw1YAphsWyZCni3bNUpfypSUiA/3xMXN/Pik5ioGTM7dzsGBuBusecPv4Pz5zwpqY5v/cnUwmLffkfMLKYvb9029b+NjsDpT+DCOc/wMHz9XVi9Ro974bzamM98Cvv36/WytMizwYTFPNPb8yC0OUldraeu1hSF8WgmR5/X12vx/Oh9nUJHRmD7XqU+9h3QePPZDBQbHlLUo7//QbvoF4mPUz1EeLgEQHfPl+8THQ2xscqHz1YQR0bK+yIpSafySafO0dGH54u8zIyMQm+fTv+5eY6jx2DFKom3+11w8YLSqaV39R5ORW6e0lZDQ0qhTEVEhDp2YmchDJctg0OH4a2vKXpw/pzs3MvL4PJFzzvfcDBFCmLffli3bubnmG7+0ugoXL7kKS/X5+7trzr27FNtyOIl8MkpR3mZZ3xcny/j2WDCYp7p7obC6/6hGovqailtMHFhPJq+PgnSn/1YoiImBnbtdvydv+/ZtEV58tDQ2W3w7e1KpZTeVd7+UazfqJNpaqpy2Vcvf/k+eXmKPqxcNXtREBKiW1q6CgYb6iUsenr0XIbqJg4fgb37HN33VYNVWa46rOaJNt3BAfmBTCcYEhIUVfKz8CELCXGz+uwsX6HoSUSENvPsbFi1WuKirm5qoQoSvlkzFJzC9J/hwLhE1fAQbNzkyMp+UJt28LBqPe53OXJyZhdBM4KDCYt5pKtLi8TIiIY0JUzkM5ublSJpqJefxVTtesbLx8CAuobOfaahYmVl2sTXrlOBW/5yR0LC4w0U6++HhoaJlFz3g12np3uii2AEwLF8uUTA1cvwh997srK++DyO9IzpOw6mIi/fkZ/vaahXAV5NtQmLSRSh8rz3e/lH1N9TN0VYmKIWzklYDgxO/zg3rsEnpzxNTdqIpyI1Fd58y1GwUmmR6UhNlTiYFLExMbA0V/UcgQAqBJmCH/4ArlyeWeXs2OX4s+9P8Y9ezxMTq+eNiXkgRCIjIS1NgioqKniGcMbMmLCYR5qbtEiMj2va42Rx0eCQFo7Su7BhowkLQ/T1qfr9xnX4+EO4c0cL+sZN8Mohx549Wkgfd0ppRIRy5YsyPbFxcswcGZWwLS3V5jU2BrgHo9erq1T9H5/w4HFSUmWUNZe6oPx8nX7PnvHUVOv33Lb98R9nIdLbA1VV8IffqZMiMlJdMykpSiMNDqqAcSZhcf++5sZUV00dmQIJhT17Vb8wE6GhEP45QzPvtZ7NJipSWwuFN2a+36LMme/jnITD569jZEQivL1d34uxrGouAAAgAElEQVSkJKWCjKePCYt5pLoaysth3MOyfMeWLfr7inJPVxdcvaJBTTP1cBsLH+8lQj89BT/5kae6WiHfnbsc3/2ezK8WLZrbqSxnqcLSR487vH8wEfX//XeexkY4dtyxazekpmgj6OnR/f+bf+pYvOTB44SGStTMZfx6/nK1BTonQVNf//iPsVBpbIQP33cU3/GkpcH3/tyxd5/eg8FB+Df/ys+qbXPtOvg7f8/R2zt9vUFMNBSs9CQkzqwQu7o0lXZJjt733l6ldttaITNr+p/92juwY+fMz5G9eMa70NUlwTvQr8cbH1e07dRJ+PhDz/FXHTt3q3XVePqYsJhH7tVBdZXHj2tmwrYd+vuPP4Kyu3Cz0HPoiNVZvOwEAjA44Ll6xXH+nE6vkZGKZn3167BuvULScx0oFhqq2+SUyvY2+PgDT02VTIbe+AqsXqvNqKFBHgGBAHzwvicmxhEZAcvyZHQ102YyFenpDwR0VZWnuso+95NMdt14D+EReq+TkrSJX7+mtENri/5tOpKS9R6PjekwMxWhoRAX52Y1tfTGNc97WY7jr6nT5PpVfT7T0mHN2uk7knJzZ3doip7GfyI0VOm/hnpP8R24ckXD72Lj4JOTutXWQHKKJyXFPlPPChMW80hjg8ZFh4RMFj3p75OSlPcuuaM8t/Hy4b1uA/0q0quqUEvp3RIIDZFPxd59jn37VZ8zm+6P2TAy8mCAWX+/0hGbtyga0lCvRbq3V2Hy20UqFgyMK9R88BDs2KlN5XFFTmycwvvJKQr9tzR7envdrN0fFzJxceq+SErS5+F2kTbx3h64fl2fjz9+XgZUPxH5iM04Kir4JlGNjfIeCQTUblpVqfd+81bYtXv6It7EJHjS7s/wcNi5Sx4ahTfg4nkZdSUkKLrX3CTxkr1Yz2c8G17yr+z80tqqW1SUFtX0dP19fILC0RUVDztyGi8PkymJujo4exp+8TN1boSEKkLx1a879r+iEHQwvU667084PN5Vnv3tr7k/9v4PDUFluf+j9XxysmNsTGmZD9+H1hYNIDv+2tzqguITJJhKSrSB1tUqTZOQMPPPLmQyFsGBV2SOdeoE/Jt/7QkNkeCKjoblBTJ/aqj3tLRAZxdkzTFy9LjExql241/9r4q8ZiyCLdtkzvbKQWYV9XgSIiPh7a96EpP0Pbh4wfO730r4hoer7fqb33YsyXn612I8wITFPNDfD00N6kGPi1fuMzX1wQaRl6fQcvEdaGyApsbZtWUZz57REeVyq6v1fnqv0/vSXJ3c50pgTJvrhXNw6qRmb8THK132zruO1Wt0Cgt2pXtlJVy65ImJ0YZVsPJBNCQtDb77PTkZgq7BOUdlhcd7dZQU3nAcOjw3YZGUBFu3O5qbPZ1dCvPHJ5iw0OwOx9//R2qhbGrUvI+ERAnLxESJ0P5+x9Zt+vPTZO06CYpDh9WBFBIKx1+F0DBPUhJkL3bk5es+T9vgz4VAXLxj23ZISYbGRk9zE3R3O3KWai3Ny3/6r4nxMCYs5oG+Xrh9W+G7hARV9Sd/rq0rd5ljWZ5yhrUTZlkmLJ4vxseVNrhb7LlzB6qrHH19+vuYGEUV1m9Q3cHjhvL7eifSH5Xw2VnP7SIYHYNVa+CVg47DRyE2RrnkYFNbA0U3JVry8h9u+YyI0N9nZjli42HxYm16KSmOm4Wem4VQV+cZC8xtN0lOVurlwnm5Td64Bps3A0uD87u9qISEKKq5d5/WivY2RY8SEmZX2BhssrJ1271Hfx4dlTtmeJgjMspPOx/kaRAWps9idrZSRPe7HD3dsGSpvovGs8eExTzQ3a2ip/Z25U9Xr3EPKerFS2BJjsM5T1WFzLJ27bHCo+eJsTF1TvznH8LPfwLRMZ6UFEUsSu8qYvHaG/Av/qV7qCVzNjQ0yE3xg/flGTHQr0K3o8cce/drQ3laC3djg2bVfO0bjtwvWEP39MDpTx1JyUpZTIbbQ0PVSTA5EGo674LpSEpWRCY5WTUlt256urvtc/954uLkiPk82f2Hhz8QoG4eL8o5iIpyLMpUSsZ8K+YPExbzQE+PvAg62mXNu3WrJzX1wRcyLw+WL9fqXFmpKmvj+WJwUIPixkblSPn219QR0dvrOHtaHT3VVZoy+jiP2d6ueoVPP1GkIjHRceAVePMrmha6eMnT2VACARVldndLNGVnKzXxeUZHob1dM0nuFsM/SFf3QEMD3JzwV1i5Yu7FlpGRE2OuEyRQKiqgbxqL6pcV554fUTHJ83Q9z+Pr87JhwuIZEwhAT4+nslLhzKQkyF32sHFLeoZOg9Ex0NaqU+ToKISFKqdozD8hIRNTPZcq/JuZpdNST49SFP39Kmrzs3ShHBuVH8DVy3D2jOdWoSr8d+2GY6/C8dcV1n1a8zMCAaXmenu1KGdlfzkvHREh8XTnjmpKshdDVLSnocHR3a32163bZ257nIpJD4xFmaqtaG2R+O7rVS2S8fwwNqaulNFRRU8mh9DZaHIDTFg8c0aGPb09ypNGRso9LybWPXTKi4yE+ARHWpqnvU3mLwP9nphYR7gJi+eC+Hi1uYWGavDST38sT5KGBrlTBsZm5xg4ycAAVJSp+6Pwhv68NFc23fsPPP3is0Bg8nMm8ZKd7UlMevjYl5Ss6ZgtzZ6f/Aj+xT/XxpKa5tl3QPMsDh6CqCdsfV2+XIZZLc0yBWtoMGOj543BAZn7dd+fsNSOUT2R1YIZYMLimVNb6ygv9wQCilQUrHh0LnCykO3yRZ0kr193rN/woCXVmF+6uyUA/vA7KLrpyVmqMdAuRJvh9auzKzTo69XGeeokfHbGc/WK0h+798CRoxIvT9JdMlsiIpSC+3v/UF0nywu+HB0JC1Mu/Z13HZs2y+8iJMSTkABLlqgmIyr6yaNqi3McS3ImUoEVMssyYfH8EAjovf/FTz0VFUpbLVoE3/2eI2PR3I3ajIWDCYtnTP3EkKXxcbWUFqxwjxQWScmwfbu8/e/f14yApUtNWDwv9PWpHfJmoaf7Prz1VVheoE6R4SGImMWpPRBQ98dnZ+CjDzx3itRGuGGTRMXBQxIVz6KyPTRUnUnbpxk6FRKiNtK16zTBtKcHQkMdkZHB7QTIzdXNe9WxVFfNPOl3fFzppJ5enabHxvT7xMSYf0GwmZw5cu4zjbkfGVEr8sZNcttclGni4mXHAuvPmKZGT13tpLBwrJgqYpEC23Y4kpN1Oi4p9vT2PvvrNR7N0KBSF+MBtZV++zuOg4c9qame20We1taZH2Nk2FNT7fn1Lz2F12FoGFavgbfehtfffDCt8XkkLExpvMRE1ZYEs1hu+XJPfv4DYTGb4uWxMdUulRTDZ2fhxMcS8GYwF3xqa+DaVRmp9fYqYtHQALduwZ3b088hMV4OLGLxjKmploNiIKDK+5yljz7pJcRL/SckyKL22lUZMBnPB4mJcOiI3pPrV+G/+6dyHuzp0Q1kntXRoZHOk0VtgYA2u+ZG+TWcOa3FOCoaVq9WDcOq1WopfFmJjHTEJ3jS0iW2OjtkbR/zCO8O7xXluXTR88tfTEY3lEr86APYsNHx2uuwZp0ZbT0pgYBqcK5e1vj1wUHIL4D4OCgphps3PBkZsHadIz3DIkUvMyYsnhGBgJR9a4s2o6QkSE3jj3bJXyQiUmHw1DQIcXCvVsV1w8PBmwthzJ24OJkC3e9yRMd4ero12CkxSamCnl7IzHRfSomMjKjL5+xp2TOXFKuifscO2P8KHDiozouX+T0ODYOkJEdBgaZ2dnVqxHbuMkj4grAYH9dp+cpljZJfmqtakfQMOP+ZIn1Z2bK8NmHxZAwOqmDzZqGnolyCeds2fV47O5XWK7wuobxp8+MVLxsLCxMWzwh5AEzmpeVqOJuFblGmBEZNtb68PT1WZ/E8EBWtmorlBfCd7zpKShRlSEtXvvlROWbvFa0oK4Of/1Q23WFhSnn96fc9+/ZrsTaUZtm2XZtVV5dqjJKTv/ydCQSg6BYU3nB03/f83f/FcfQYRITDD7M9d+9CZaVncMiMDZ6Unm44dxaKi1VHtGIlHD7iyF8OZXc9hYVQU6PhX6lpMqkyP4mXExMWz4ieHqn59jb16K/f6B6y8Z6K3GWO3FxPTfVkIZsJi+eN6BhYsUIn7cjIR9fMDA2qDfXsGXWAlJXK72HNWnj9DdXbPGoi5ctKcgps2+64eMHT0aFU4KbNmo3xecbHoaXFMzwsC+dFixRNCgmBV1+XU2lIiP7emDv3uzQc7ve/85SXSTh89evqDkpNU6dQ/4Dn+lXdZ1meBn+lp5sD5suIveXPiN4etSe2tenUtWnzw3MYpiI7G7KyHd5DRbncHI3ni7AwbYQJCTyyO6K3Rw6qJz9W3v/mDY213rwFjhx17N5rlfRfJClJXQYJidrUim49qF35PJOj5UdH1bESE63cfmioNrXMTH3Pnpax2MtCTY1a30uK1Z+zarVmlyzNlbDYtQc2bFDtUU21hOCdIivkfFmxiMUzoqcHCm9oPsiyZVo0J2dLTG5E3j/47+QtKVmblvean1BTPXPrnfF80dio1ry/+U+eqiqIjIDtOx1f/wbs2z91Ae/LTHwCrFwtsdbbq1B7X6975IwM55QSmWwz9V5/bmrSJNDBQdixS9834/EZH4fbtxRpGxjQgL3de9VyPDmufFkebN0BVdVw+pRGFmQv1useHm6f75cNExbPiIF+hb/vd8HgIqirU6fAyKgWPOdk8d3Zobxyawu0tniKitR14D3cq1fhn/FioIJdjRI/e1onudgY2LwV/vafwbp1OlXbovtoHBMRhzQ5PHZ2SWR8vs4iJAQyFjliYtXiW1GhIs/4BOX675ZAeLhnxUpnwmIODA3BvTrVuJTd9YQ42LpVkbb4BL3+zilqt3Wbo6MNCq95Ghs1U6bkjmPFKtXHGC8PJiyeAQMDWhQ7O9XV0dEOJz/SKSAlRVEJh1rr7t/Xv7e3eTraJSTa2qT6B/r1GPe7NFvEwrvPH5ORpr5euROW3oVPT3mK76imYt0GOPCKY9t2hehttsI0OM1iyc6WtX39Pb2mnxcWoaHy/qgod1SUeS5d9HS0O2Jj4fSnOm2vW2dpprngvQTd2dNQdEvtpStWwsbNjpWrHk77hYRATg5s2qKZMbduqSbsxMcqdE5MtFqLlwkTFs+Ajg7NPRgP6MvV1AQ/+qH/Y+rji0xO53NO9w8PfxAS7u9T611eHoQ/5fkRxuPjvfL99ffkU/HTH6sLxHtYvx5efU3TSlNSrM9/JpxT2nBprvtji2NNFaxc+eA+YWGwZavEe0MDXLoAv/6FZ2RELaevvQ6vveFImUU9k/Ewo6Naq377a09xsQ5ABw871q9/9Oya2FitS8dec9zv9twtVvdTQYFj5UrVFVl07uXAhMUzoK5GJ9dAQKHv+IQJ++EehRq/SEICpKSpkj1jEURHOUZG4MzpBxXyyclTe2AY88fYmJxSL12STXdpqd6rrdsc3/6Op2CF3tOICFtkZ0PBCsjPV+ShstxTU/3oF23NWvgv/2tHa4siff39jsVLVL+SvViFncbjUVkhF9PKSq1dublw5KhnWf7UH9yUFDh61FN8Wx1sjQ1w5Qrk5MKOnTw0bNFYuNjb/AyorVF+cmxMocJNm/UF6+9XauSLxMVNGGilQ2qqZolMtnt1dKjmYscOIPeZ/yrGNAwMKDJ16xacO+u5fVtRqlWrHQcOagR6XLwtrrPFOVi8BLIWK+JTUwP37j26eDklRQJuZMQx0C/BnpL6chuNzRU/LiO3O7eVxmtrVZvv9p3qBpmuXiI6RpNpN2+RmdbVy3D1iicry7F2rT7/lpZa+NgS9wyoq1Pv9/g4HDjo+NM/l4nSbE+sAwPQ0gI/+RFUVcKN65773XbcfV6YrKtobdFgsl/9Em5cU346Lx/27NWU0vgEZ4vqY5KaqltoqDo8mps0kj4k9NHdIZGRJiaelLGATMluXPOc+VQiY8NGx5GjEmvTCeOQEIiKdmzboTTK7SJP0U1ISvK89bYjLPzltqt/WbBymqfIZL69vR3aOxT+TkpSfvJxwuCRkRMplHilUO7VqTgwEHh6127MnpERaKiHD96Dv/mB59IFT1SU4+hxxz/5C8err6vf34rX5kZKKmzZ5khMUnHz3bs2XOxp0tsDp0547twGnFJRW7Zq6u5sRVv+cqU+1q6VkKivgz/83nOv7qleuvGcYEvdU2RoSBtOR7uCt8vydPp63KK90FDliLMXa5Ht69PJraPjqVy28RiMjkJbqwo1z57x3Lqp9331Gjh6HPYd0CIbF2c1FXMlKUkTZBMSFAUqLTFh8bQYHIT6+gl32DK1Rx84pNRGevrs0xhJSfK5ePU1rVvNzfDh+6o16+1lysJ1Y2FgwuIp0t+nPGVHhwo2N2+dux23cypky5soZKuuxtT/POK9CjXvd0FpKfzhd3CzUDUzy5ZpmNjBQyrAtdD8k5E0MdgtPl4Ri5ISReyM4NPZIXfNc59JYGQsgrfedqxdL1ExW3EcEiJB8c431Zra2ys7+5uFSmmZsFjYmLB4ivT2ym2ztVWnrS1bHWlzFRZAwQqnCnkP5WVm7z2fDA1CRTn87Cfw7/+t5/w5T2Sk48Arju9+z7FnrxZlS388OWnpsGePCjQ72uH6VU9393xf1cKk+A589KHSIcuWyao7v+DR7aUzERWlos8tWxVxCg1VMee5z3Q4MhYutuw9Rfr7NQmws0Oh8HXrnsBW2KndKydHVds1NVB/z2T/fDA6KnfUz87AJyflMIjXAvrWV+HgYaW9oqMt/REMYmNVoxKfoO9UeblEu21OwWN0VK2hhYVw7YpndFTW3UeOOtLT52bGFxqq9277DsfefeoYKSvzXL6oVtR+S2ctWExYPCW81yJYWa5xw3FxkL/cz0n5gzao7GxPZha4EC0CTU1aXC2s+GyYLMbt6oTyMvjwfdVUjIyoDe/V1+Ctt1VfMdf32fgy4eESFZOOm02N+k6NjMzvdS0UvFfnWWGhokHVVRLFW7c5Dh1+8i6OzVvglYOOjAwVshcWei6elzi3tWthYsLiKTE4qPx7e7vGaSenQGyseyIPg8hIR0KiCkCHBhUJ6em2CYLPiqEhmQb97jfwn/7Kc+O6BN/GTRohvX6jrNYt/RF8nIOClZ+rMaqCe/fm+6oWBqOj0NLs+c2vPLcKJYpffd2xeYt8J5708xwdo3TK17/hyF0GDffgh3/juVviGR42ZbEQsSXwKdHepoVvcEAFm7m5EBGpaMNcCQmF5GTHqgmf/s5OqKrSacN4ugwMQF3txOjzD5X+iIqSR8U772pK6eLFZn71tAgJgRUrHMvyJCwqyj11NfN9VQuDtja4XQRFN6GnV6ZkBw7KJTYs7MnTeaGhsCgTjhyTHbtHz3e7COpqnUUtFiAmLJ4SDfUq7hsbk6hYuSo4jnMpqbB1m8YVd3ZC0S0VWhlPh8kR3G2tqmj/7a89ly4ox79ug+Pr78J3vquuhcSk+b7ahYtzsLwAluU5CYsKqK21HelJCQRkunfuM0djI4SHab3asFFiIFgkJsL27Z71GyAjQ23DN647bt58MOreWDiYsHhK1NWqZ3tsTIVnK1c9WRpkktRU2LrdkZg4WSGPVcg/RQITLoSXL8F7f1BtRUgIrFoFx47DqlWOyCj3RJEoY2acg5wcT3a2Z3xc36+mxvm+qhebQEDtu5cuSjDf75LHTlgYNDe5oK4roaEQE+vYs9exb7/GFJw76/noA3XNPWq0gfHiYoHbp0RjI1RVaj7I4sWOvPzgRCySkjQlMyFBM0ju3Lae/qdFT48iT5cvwZlPFSqOi4M162DvPseuPZCVbbMPngXOQUKiIy3dk5yi96atTanGiEh7D+bC4KAGGt4s9DQ26O/6+uSR89EHntYWx6rVilykpslHZK4MD6smbHAQQkI8EROp3LvFGsu+b78GxhkLAxMWQWbSOKmlxdPUqAUvI1Mb0OMQCKjqfbIwMyxMp4m4eBWwJSTqS1pV6enpcQQCtrgGEz8ud9OL5zXivrwMcBIUr78pA6zFi+fWhmfMjYgI1RgtXeqpqtRG1dEhnwv77D8e4xPRik9OekqKFYWLiZEAKCtVx1lJsWfjJti42bF2nSKvYWEQFqqC9JAQve4hIRJ+3qv+ZXxcjx8IaO7I2JiiqyXFcKvQU1ujlMtIyMRY9t94luQ4srKtRmmhYG9jkBke1obU2aEv3LJlc2s9nJxm2tSoL21WFqxeq1TI5J9TUtUV0jRh752REfzf52VkfByGBj3FdxynTqpWJixcff3f+g5s2gSZmbYIzgdJSbBmjQa+dXZCURFs36FCWmP2dPdAVQVcugC11YpGHD7q6O/3VFfKgvtmoeovzpz2FKxwFKzQASkrS+Zvycl6P+LjPVHRjpER6O/TgMT7XSpgb2rSGlZbI6HS3iZB098v4dHRLj+Yw0fkLJwZxLoOY/6wpTHIDA5CZaUWvagoWLVGraaPQ2cHFN6AX/8SkpIBD2dOwzvf0Mj1+ARYmuvIzvZ0tEP9PY3rNmHxZAQCSiu1NKti/eQJz+0iiIxScebBQ44NGyAzyzay+SIlFTZuhhvXtXHdvKF6l7la5b+sVFXCqZOeujqlVTdukrlbIOAoL9MAsvp7SjdVVEBbm6ei3JGcrPUsMVGt1bGxnuhoCA9X2nd4GPr7Pf19jp4e1Sd1dUFHu6e1RT+TkaGBZn29evz6e3DpgmfJEscbX5nvV8YIBiYsgsxAP9wtUQQhLg7WrXekpT3eY9TfU+7z5Mee1950+HE48aEnd6lc8FYnarDV0lzHzUJPTQ00NKiS25gbk+ZX9ffg8mX4/W8UMRoa1IyXo8ccr0zM/njcIXLGoxkZhpFRTewNC4PwiJnnqqSkwuYtjl8leu7dkwB//c1nc70LAe+1+d++BR++p1qVLVv0Gh47DlHR0NToKLqljrPbtzzFxaq9qK3xVFZIgE/evP9yR0dIiOooQkOVKgkL0y0+QSJw3QaNYW9q8ty4pojG5UuQmek5eNgRaTUzLzwmLIJMX5/yiK0t+iJt2QrpjxlJqKr0DA3BN76lfP7oCOAcI6MSEGvXw4qVPOjpL/PUVpt39JMQCKiF9OpV+PUvPEVFCg9v3+H+2E6aMTFQzAywgkN1tU7OTU0KgS/L0+s8HUmJcjmNjVO6sOyuTsfG7BgeVq3DzZvywMErxXf4qCM+QTVDOUtVrLltB7Q2O27d0sDDxkaJgM4OT1eXXv/BQQnySUJD9R1JSlK0NTnZkZkF2dlKo6zfoPc5PgHudzkSE+DsaU9Ls9Ja166oOPpxD2PG84UJiyAzMKA20+5uWLJEkYXHrbFobtbjbN2mGo3BQfXw36uVlbdz+pJmTxQ71dVCQ4NHo8qMx2VgQDn7a1c1gbGkWKewlas0oXTjJokKi1QEh6FBOdKePKH6lZQUKL6tDS0uTsWYMTGP/tmwcAm+rCxZTXd0KJze2/tkXQsvA4GAxMCpE1B4XW27W7YpArQkR5/vkBDZeUdHq4YiI10io7NTP9vVBX19qsUY6FeBeSDw4DlCnMRJdKychmNjJTKSkyU0MjNVeB4aCokJsH6jCqGvX5PI/NUvICZWa6YVRr+4mLAIIqOjKqasq1N4NyVFofOpFsmpuH9fbXQZGVL/Y2NaNLu7PZ2d4JxynekZyo92dKouYGhQrXd2op4d3mthbKhXodrvfzsx+nxi9sfefY7de7XRzVZUBAIwPKTPgvfaCCMjbZH8PL29mqJ56YKnowPeeNNx9bJSG6tXOzZvnf47ExIiE6dFmbL2bmxUEaAJi+np75Op2KkTUFamtNLhI44Nmx79eoeEaJNfXgDLv/SvT36IiYyCvDz46juOzk7PnSL43W88W7fp/U1Lt4PSi4oJiyDS0qypo2OjKvBbuswROsdXOBDQSTow0a41MKDwb3zCg/skJsKq1Y47tz3370NpKeTnP3wfY2pGR7QxnfgI3n/PU1qidt4Drzje+aYiFUsWP16koq8PSu5Afb3CztnZGkr2uO3GC5nubrhxzZOX7zh4GN54EyIiHTXVqmvJL5je9TEkFApWOnLzlPOvq5W4WJb37H6HF5HqavjkpKO21hMRIfG8Z69nWd78beDpGXD0KNy4Co31SotduqjW06PH5+2yjCfEzrZBpKEeyks9o2OwJMexcuXcWhITE/VzNdVqyxoc1BcuIgLi4x8sAqmpsGmLQosd7TJw6jWzrFkRGNMGd+UyXDinE3QgIBHw6uuwbbtG1EfHzD4C1NWlorif/VRpldIS/f/lS5rkaGO+xUC/hrklJqqYb1GmTqixsSp87pnBoj4kRCJiyRL5t1SUe+7VPZtrfxEZH5fgvV0k46v2NqVYjx5TqnY+Iz2RkRIXu/do6NnICFy84LlwXt/Pz9dvGC8OJiyCSH29p6xUX4acpbBy9dyERVaWcs23i/R4lZVQVeGJjXUPFYKmpqmiOyFBueabhd6ExQx4rymlLS3qqz9zWqfk8YBOynv3qfsjO/vxW0qbGpVKOf+Zp7dHz3XxvCrf62pNWEwyPKzXPzxc81UcyumDaoUGB6f/eedUv5SVpde4sgLu1dmwiakYG1MErfCG58plCei16xxHjjnS0oMzamA6hoeUIu5ol1j4/PvrnNbIbTtg525HXJwMuq5c8lRW6mBlvHhYKiSItDQr3Dg2KlfGgoK5CYvVazUQ6KOPPOXlntERPfabX/Fs2gST+c3kFBU/xScoonH3rk4mxtSMjioS9MlJeP89KL7jiY2FPfsch4/C7j0SFXOpibhXB+3tntfekDhJTACPIyxcwmLDRjPV+jwjIxIZngf/TUufueU0JET1R5NdOg31MqUzHs3gIHx6ylN0S1HP1Wsc6zZA7rKZX+tgUFMj8dfQoJqz/Hx1tn0+ErgoU90gW7c7iu+o3uZXvw0rt90AACAASURBVPB89287kmy43wuHLXNBYNLKtr1dIe/YWLVLJSfPrZAyKxt279X/t7XphJGcDFu3Q1Lyg1RIdLS+qCkpCu3X1Ujhj49bAeejGB2V+di5s/DpJ57bEwvttu3q41+/QYJwrt0f7W2erk7YvlOh/aiJ4rSKCotYfJ7ISImC3l5Pc5PGZnd1wUC/J30WwgLkeZGSIpvpulpF7OrvSZiYedkDeiccNs+dVQdOTKzGl2/dpnXqaa4TQ0OaCnzyY3XKpaer/qi0RCnGzInOHtBaVlAA735Lk09ra9S9snmzUiXWfvpiYcIiCEx6IHS0a2NfskTRhKjoh+8zPKwv8qRhzBcfY2xMt5ho2LwFtm5zVFUqXJiX/+XnDQtTQWd6hiqsW1uhq1MdJbFxT/d3fpHwXuHYjg6FWT895Sm6KXOmDRvh0GHHq68r1/wkxjy9vXITTE7Sex8aovdhoF/dD37cqtxBr8nKVWqrLr7jWV4gt8eeHoXoZ/vZTU7W/Ts7JehKirVhmrAQ3iuSc+WyUnTd92WbffAwrFn79E2o+vr0nly7Kl+fVasdN2966u/BmrWO6OgHwiIkBBYvgTffkgiqrlLN2LWrqnWaHGVgvBjYuTYIDAxIibe1SRSsWPllG+/+fii7q1NVd/eX3eomJ2neLZZ97vCw7rAkR1+4qQgJgaVLlW8OBNQLXl8f5F/wBWdsTOHYkyfgb34gZ83BIVixAl5/07F1u0RFME5vgXEYGFQ6LDCuz0ZU9EQtgX3bAEUa9r/iGByQbf1f/BPPz38qUfb6G56sWc6LSEuXAV1Cgr57hTesxmiSyWGIxcUaid7RrnXpK29p0vLkhv406emWX8bSXMe733Z841vw9lcdK1c7ysr40lj2iAhFNV456NixyzE+LvOs8+c8o6MW8XuRsIhFEOjvk/3tpBf+ho3KAY+NSVCc+VSFlYODmpq5KMuxb79yjRGRMr06eQLKy/wfC9nWrIU331YR53T5/tBQWL7CsTTXU3wHyso862s17tjQxt7cpJbSc5/pNYqJcezeI/OrHbt0IgrG6S0+QX4A9+o8q1Y54uJ1Kg8JgcREZyeuCWLjdHJ++2uOFSsVLk9MVI49K2v2qaiUVM2ciI/XY5QU67toaO2pqoRbN1WcHBIiV9PDx3T6fxaW2YODcvdcuUppjrQ0WJyjWovSu569+x/+QsgKXEPlGhs8167okHTrJty5PTezQWN+MGERBPoH4PZtT2urhMCGjereGB7Wl+j99zwXz6mVsbkFoqM8w8MKBcbFwaen4OMPPQ31kL1YRYDV1RpgtrxAId+pCAnRyTt3mSMQ8FSUw7175sIJk+PrNbDq449UUzE6CvsPwptfUV1FbFzwCioXLXKkpWnEela2JyHRUV7qWZqrglCrexGTJ9M3vgJ79ynsnbvs8Yf1JSZqw0pI1GNUlOu76P3LHTYfn4iUXbkMN657Ojsk5DZugs1bPNFRz+bFGRlRJGnNWr1HzkFUpP7b0iJDv0exYqVny1YoWAmV5RKMp04qyhIXZ3NEXgRMWASBoUEtapNf4LUTXvddXZq+OB6Avfvhn/yFo/AGXLwAn5z0bNrsiImG//CXGr7z/b8rX4q//o86bXzwnufdb7kZhUVevlImgYAK2Zoan93v/rwyPi4H05s34Le/lk/FWACWr5Ah0/adMsMK5ma/fAU0NTlOf6rpkN57mpt1Atux0xMW9hLvdlMQFw+r186tCyciQimm1FT9ub5eEYtA4OXuvhkZUfT0D7/zXL2sCOihI46t2/T/z1rgjoyoxgkvV1vvtT5GTlELExnlWL4CvvEu/M0PPFWV8J9/oChg9mKJC+P55iX++gWHkWEVRbU0yxEwPUPqPCIC4mI14Cclxcnuu0fRiLY2T1SUFr/BQS2IS3Nh5y61XeXlKYReeldV3dPhnMLvKck6Bfb1qUixv19FbC+juu/tUaTos7Pw2VnPjesyFlu9BvYdUBdIZmbwX5v0dNixE8DR2KCIVXIy7D+g0/hCjFg01Kt+pf6eIgjZi5Xii47mj66z7e1K91VVeYYG5VUwKYYTEx/vfeju1nNqFDfU35M51ujohLCuUxFz9kvsdNpwD86c9lSWaxMvWKE26uUFz/YzGBkBmYugr8/T1OgY36r3rbfXk5rmpiyydU7r4OQMkY52rZFXLnkyMx3bdz6738GYGyYsnpCeXi1k3fchPk4LWmSEvhxx8Qo/btwkQfHe7+HyJU3yW75CC2p/nzagtHS1X4GESVQUVFfq32YiJAQSkiROykoVOWlthszsB8ZDLwuBgDw9Lp6H3/zSU1KilMiBgxoLffCQXuen0TkQF6d01+o12miHhuQQudBOz+PjE26wjROjtYugtla1DvnLYXRUdt1JSfr83ilSdf/dCaEcFzeR7z+idN9Mn9GxURXb9vbKD+HaFb3HdbWemmpdx8iI5rJUlMPatS+nsJicfVNWBh9/qHRDWpoiZus3qMX3WRITCytW6btQVOTJyXWUlni672tNnM7xMyFBKZQtW7V2Xr2iSG/2Es+6DY6IiJfz0PSisMCWvGdPUyOUl6l1MXeZTmKP2kju34fz55R/9163jg61h36xQ2QuJCdpQ2tokMK/fQfiEl4uYeG9hNqd26qEv3Nbi8/GTQqrbtuh4sBnsdFnZsK4X5iL3+gIVJR5/q//Q5//qGi1ElZW6DWvroJv/Qls2qzP409/7Dl/DgpWOEZGVEt08mMIBNwfCzmnq4no7obycrh8UY9z8bzE4uiYrmVsbKJjwKkosHYz7Nj18qWdxsclJm4WygBucFBR0DffcmRkPPvPYnIK7Dvg+MFfeX77Gzh1UnbiGzbCsVc9WVlTv0chIfIz2bdfZoGXLnquXVNE7MhR/fdZdLYYc8OExRNSf0/zDUZGFNpducp9KV88MKAvwTe+6di5W/NELl6EHTumbkEMDYGoKEfILBeDtP+fvTeNbvNMrwTvC4AgARIgwX1fRXGnRO27tVqWLduyXalUllqSSSfVlUySTnpOZqb79Jnp0zNJZ3Im3T0900l30kmlKqkql12yyi5LsvZ94U5x38V9XwEQ+zs/LiBQFEWRFEWB5HfPYZUlktCHD9/7vvd5nvvcJxrYslWg9IHE8DC1BQWFTM+vd7jdbFUcHGBkc/2qRO0jairy8oGTbwnk5vMeLaWWb57mcKvyMiAvD9i6zf+9qSn22dtsT/9OSAhNy2LjGXWtRwwMADU1QFWl1wfkqEBWFtDcLNBQJ9Hby/szOgJcvgiMjgpsziHZUKsZtf7kx0Bnh0RDvUBm1vyHnpQkKRXlwI3rEk2N/PPoKFuwExJ5YIaFAR0d7CJoaqTOaCPC4QAe3KNY2W5n6WPLNgYc+mUcwn29dKnt7uY9TkxiRio01E/OR0c5PKy9XcJqpSA9M4sjDcJCWRY78yHX39AANTGbc2gCGPICIzQh+Fol27j2OtqYkbp4AXj3PYVYBDIUYvGS6O3lVFGnA0hKZvucxnt42Ww87IaH+XfvvMuFePG8wI9/JGGxSkSaBNRqbsQT40CEiZGG27M4e2MfIqO5yYcZWYN+VMODcb3Dl/7t6QEe3qfgtaqKqfLIKB5ARcVYtKOj7zU9Hqb379xi9uOXviGeEAuXi+K4878gaZzdHhlhYoYkRLe+iUVrs4DFTI+C7Tt4b7XBgCFMoLyMNuljY4ychYrak3feZQatslyg1juRt71dQspnI1e7nT4I9+8Bly9JXL/KvwvS8MDcuUsgLx9Iy2C27vo1gUfVEv19s0ojmvWpa5kPTgdLoHdvcwaOTsdW6m3bBeLiF5+l83goRu/pYeavrpa6FZ2OGVm7TSIrWyAqip9HfS27T5qb+XmFhJDIHD7K8ktkFKeU7tpNkpKUQh+TxUAIzkMqKGSW4nMzif5XF4AtW6jDUMzQAhMKsXhJDA0Cne00cImLe7qm3tdHVXP3Y04TzM4WMHvdGUNCuCGaTBJ6PRdweTnrzr09ElOTQH6hWPThFBHBoWehoSyvNDdJWC0bIx3sm9z4048lGutJ3qTkBjk5wQNOLqEswd+VuHEd+O//jVmpI8f937dY2J//iy8kgoJYXvEhJhaIixcvHKS1ljE+BkxMSKRnkFhdvUztQ2o6UFgI/MEfCURGAhUVQFOTREEBDzffIR9mYOmkpZnP+XwYHiap+PRjibJSlkMys0jadu8VOHiIGUKNhp/r0BAj6v4+b7ZklAfYaszCCASMj7PzqaqS5Co6BjhyTKCkhPdose23TifQ2SnxH/9v2mprg+mS+bgTeFQj0dEOfO3rJAq9vcCnP5W4fImZWo9borebZNJh596VnU0Rb2gYx7Srl3HipKYx61FTxamnFeUStY8EklPmdyRW8PqhEItlwunkBjs6IuFyMfUXNSfVbjAAW0sEerq5INx/LjE+DoyPArt2C6SmA9FRwLtngKFBib//W3paNNZTaLV/v0R09OJ2BLUa0IVw1kV4uLdTZZAb8no1lbFa2XFw/y4NxhrrmU2IiwfCwgQG+inePHdWQgi226Wkvvh1p6eBG9eB0geMzq1WzmLxYXIC6O/l/x9/Ezj1jv8z0uuZJYlexyWoiXGJrseMau0Oie5uAenhvWpvpZ/Lvv0CLhfFmm4PoJlF6oS3fm6xMMqdqzFqa+Mo+3NnWdJSqYGS7cDhIxxStTkHSE562rY+IYH+MVNTXGPtbYyyNwKxcLup8zp3VqKnh+Z8ew8I5ORQ57AUT4+hQWY7q6uofTn+JstcnR1AbS2FlFOTzK5euQQMj9CM75d/haXbtlaJH/8TvXTqaunyqfZmjrTL/CxCQxmw7dwtMDQk0VDPWT9R0QIpqdz7NrJvSSBCIRbLhM1GE6vhYZKJnJxnB+WEh7PNq7tLYHpKoqqCB19sLHDyFNtKwyOAMx8CX53nVL+Bfka9eflMJYYsQXypVpPBxyfw2nytd+uNWEjJclHXY26AF89zM/RIpmFT0hgt3bnFOvH1q4ySg4JYqtDrn5+9mJlhhuLyV/z/yEjAOmd08/g4SZtKTRJRWMQUsl5PMmkMX98peIuFz1VfLzNvKSkSyckCbW3MvPX2AlHREjqdgMPBg+95rzN7Gq/TyTk3FWXAlUsSN66RGOTksaPn6AkelvM9z1HeUmBNFbMVDXVcX+t9MqZv+OGjR8wUmKfp0XLsOJ/NpZYKhgaB5iYBi0UiKVmgZBtLfdpgQB8qEBQkYTAwYLl1gyWY7Tu4n4WHA/W1AnWPJMwWoK1Vwu1++RM/KAiICAd272GZt7mZupuUVIm9+wVilMFzAQeFWCwTVgutZgcGvDbeW8Qz7VxBQTTv+dZ3gNPvCvT2AAaDRISJB5xOR6Z94AAX5/iYQE8Ph5jFxJCpL4WJqzVAdo5AahrtwZsa2HqXnb2y7/11Q0pGTteuAJ98LNHWxkN9z16Br/8KSZ7bRcHZ1cs87K5eZt05IUEgO+f5Jjv9XrFm2UOvPmOLwCcfPx1ST4yTUBqNFDBOTFC4lpPDCbR79z7f/Ge94fibwLd/UyA2BqiqAr66IPDjf5R43AFkZEos1PDksHvFr94fmp4GWproknr3Dkle8Vbg5FvAR79EoebzRIgmE1Pt+lAejlWVbDFe73C5gMpyPq99fQxU8guAo8ckTKalH+oTE8DYqERqKjUU169RMOnTKn3v9wQio0jcWpol0tIE4hP8RJ0tpgIN9WwrlSs030OlBrbvoGfJ5UvMFj6qAW5c47TWjdheHMhQiMUyMTMDNNRJDA+SIOTkMmqaDSG44AwGMmqDEQjWCmiDny6ZqHXMTISGcmMIC1teCletopYjMYkdEW2tEr096ytH6HYDVqtEeanA3TtsQwwJoXL8zEdASQkzPm4XcPQ42xsnJ7kR1dcCpaUS8YniGWIhJQ+68lKJi+eB7M0UB+pDn51dMTQEdLRLWC0++2gBp4OHYXMT9RVbtvBzWI+IihZIT5cYHqJgOS0NXtLGbJzPDM5mA+Jin1Xve9zAzAwj38goPHGfHx0B7txh94fNBmRlUXN04JBAQiI/h+dlgkwmdhuEhjLT1NRIsreeYbeT4F6/Rt2BWg0ceoME2xRJoetSMTkh8biT2c5ps0RfL+/hQD/Q1iIx0McWUreb2SbXHJdTIfg5Wa3ManhWoJXe97pGo0BBEfD+GeDLL+jI+cXPJdIzBMLDlS6RQMI6Tti+WszM8FAbG+MDnZm58EyPoCCm1UMXGCqm1TLDsdy6sEpNQVt8PABJ8VV//wqt7ACAxcJDo7wUuHWT6ndIkrr9BwQOvYEnlr8GI30Udu8RKChgXb+tjXqM/r5n5xTYbUBjo8SD+5xNUFDIGrPP7Mxmo17A6QCCgyViY1l2KSwSKCriMCyXC6islLh6mS166xXRMUBquoBOT6Jns/m7c+x23+EvEBxMgZ3HIzEywoPI14ba3cW1kJDA+2u1srR16wa/p/OSxT37BPILvE6eC4hv9aFsYYyM5OfQ20My6ViEwdxaxcQEn9WyUrb4RkeThG3Zyr1kOdN0rVZgZJhEwjwN6HQS2Zu5J7U0A5+d5ah7p4uft+c5ZS6rlRmolfDo8UETxPLWqXeouZieBh7cp3B7cGDl/h0FLw8lY7FM2O08uC0WpsSTUxZ2klsNqFSMGGNjubH093OTWA+QkqTi5g3g3M9IKoQgAXjntMDe/azx+kibSuXtlMnh4VRfJ5+0j75xmAQuLd3/+uMTwA+/z9Y5o5HlKCmZXnY6OT2zrRVITpHYs5fdCWYzux8iTIDHI2AySZz/khv9vv3rN1o2ee3jJyfpqllVCezdB7S2SjyqYUkuNpb3Ny2Dh1/pQ/80y6pKEohde0g8hKAXQrX37+12YGsJcPCwQGbm4teVWs0OgugYEpi+Puph4hY5hn2toacbuHxRoq+XwU1ePlBczLLFSuDwUeB3/jkHKtbVApcuCvzjD9gZEhkpFyQNc8tcKwVTJNdefgHJe38fcP+uRHISkJm1ftfcWoNCLJaB0RFGVzYbU7mpaQLBwYEh2FOrufgyswTa2yXGxmgqlJCwNCFoIMHh4CF25xZw7bJEXR2g19FJ84MPmTlISCSpmK1JUalI+PYfBCrKBWZmJFtF24D8wqeJhd3G8dId7TwY/+mHJC4jo4zc7tyWUKmAX/pl8WR6ZHQ0oyi9nq9hNDLSNk+v70g5MYm+FMdPCExPS/zD3wFnP+V9NU/TkGzTZoqIz3zAQ6+pCfjLv5BPzMzCI4A9+9i2qFJR8Pm4i2sqOYX+CwcPsay12HWlUbO+X18nUVVJe/vNOeuPWEhJz4raR+yGGh3hYfvBRwLJqcsb6OZDZJRAeqbE8AgNyFJSWWqMjfWWGN0kbTMzXh3YnJIi7d4lwsK4PpaTNVkIGg2zkUeOC4yNSXzyMYOB1DSKVk0bqMU4kBEAR+Haw8AABU0OB8WAm7KBIO2Lf2+1EBlFRh8W6lXI1zOzshZhszEqqawAbt2UqPG6XWbnsP3wzVP074gwzd92FhFBMWd+ARCfwGFwHR0U+M2GVsv0apE3GpIgeXDYuVk6HPyzy81IqfQhv/p6mdGw2fxzX0LDlt9atxZgMvEenX4PyM0VsNvZjWG3s4Pj9PssDUZEMJPxxhE6lw4PU58SpOVnt3cfza6EILHo6WZ4m57OWnr25qVNslRrSCRS0gScLhKLnnVYknK76TBaUUY9ik5HYeUbR3mYv0yAExUFpGcI6PXUKVmtfv2RbYavLYSAViu8mRFqbczTbEMd8Za5QnQUVK50sOXTcGzfDuzYRX+U/j5mwcrLXjy0UcHqQMlYLAO9PRRu2u2MrvLynxX4vU7ExtICt7yMB2hNlURBoXhGXLoWMDJMm+5zZ4GHD3h4p6cDx44L7N7DbMGLOmfUakbPpkivAVCHxOAg8EQ1CH7/T/+9eKo1srubToZ/8ecSX/8G8Id/zImMn5+TaG6m82aQFkhLA6wzAs3NfDZ8Tp/rGaZI1rqPvwlMTAg0NTCTkZTMiNFnXKXTCxw9xgzH4ABJmk7PZ1Q/K4PW2yOfkICkFK6rpUKjod4mLY2Dy9paWSaY/TmvB7hcdCO9d5fveccutmImJ7/8QR4eQaM/8zQNtyrKgX37gfYOOtoKMHORmk4iXlPNOR579zNrW1NF/VNRMbvTXsV8EpWKPj9btrCt9sploLkR+OmPKeRczx4yawUKsVgGensk6uvJ4hOTGFm9TPpxpREVRQfEsDBmV6qracK1ljAzw3TvLz7nnIjKCppe7d7D9sPirUBy6uLacTUaHjZxcTzYxsaetTtXqZhinY3JSRIXlXdui88FNTdfYO+gRE8X8PPPfEOxJKxWoKCI1tUZWStzHwIVviFRwcEUuGq1zJDNbQcVwk80fF4DavWzw/GmvJ07UnrT7ss4HFQqijdNkVyPfb3MkqwnjI9RRFlTzUjdYAD2H+CcoJU4xBMSvWWuNwVGRiR+8PfA2U/YJTI5QS+R3DwgNgZ4731+jrWPgP/nP7DMZbXwOdizF9i7/9XtiyoVic2pdwQaGySam7jP1VQzo7ZeO7LWChRisQRIyTTk4CCjWZ9YMikpsEZjG41cdOHhFBy2tlBB7XFj0UPNXidcLoolK8qBK5clKsqZqdi2HThxkge3PnTxm5Za43XDjKYL5MTE4kpDOh03qAMHn7YOTkujs+RAHzMX3d08LHPzGDnu2s3Ib6MgSMt1sBDU6oXLGlPTrN0DJMZzzeYWAyH4mZkiWA4cHqL+YHKC5alAWqPLgdtbhrtymWtaCCA3HyjZJp7SC70MwsOZ9Xn7NFBVKdDYyGdcowbyCoB3TtMXx2BgpsTp5J5SUcZSmNHA0tfe/eyqepWIiaH/T34hheq9PcDdO8yoxMYpjpyvE2t8qa0uOKCHxi/maW5eJm8LaSA9wNpgHmyR0TxUR0cB87SEwwGE6ALoQp8Dq5X18U8+prPmjJVCy2PHGZ0Zw5doHKbmJmQMJ7maGF8csYiOAQ4dZlfJbBITGspyR06uwOgoozS9XiIsTDwhPIH0PKwFTE/5iUVk5MKt2y+CKZI+JBYLxcstLTwsX3fX1svCbqOd9Y/+kQdpXj7w/ge0zV5JYbYxHHjzLRpPTU8JNDbwoE7xCkN9w910OoFDhymiHhwk8fEJPVfDCVMbTO+gI8cExkbpbfHVBYnYGGD3bkCvF8uaTaLg5aHc9iXAbgc62gVGRyWCgzkUKSoqMA8RjQZITeWGMDzILpYhrytnoMJs5gyOG9cp1Cx9CBgMnJ55+Aiwaw/fz1LvtxCMln3pdykX11+vUvFrbmbEZ3ym03ETdbkAjVpww10DGaFAxOzPRD9PSWUpiImlh0lri3f2RTUtx9cysfB4gIYGgZpq6oMMYXTVPXBQIjJSrOgeJASfed9XfgF1MXMNqHw/Z/Da5fsG/YWErN6eqNUCW7dyRk15GTOzjY1AaSntyF+GoCpYPjZUV4jHQ3IwNEQPivY21ilnzytYCLYZPrRDQzxUcvO4iQUiND6FfAoPvrY2gb6+5/+8lPy56WnqMroeUzjpMz961XC5KO67cwf48hcS9+4wE1BUDLz1NmcRZGYt311PqF7NZqfVUoehDVZIxUpBiJcTIcbEsP0yLIzEorr6xWtcSpqfPW+uyeuE280MW+lDdkfZZthNs7WEZYmXIWEvgkbDzN1C606t5vd95H01Ay2VijNDiop5P4I01KBcu8L9xOlcvWtR4MeGIhYuJy1rK8o4uOrcWdbkensW9/vWGaD2kUR/PxdzcbGgy2UAIigI2LJFYFM2WywbGyS6u57PEHyjwrseSzy8D1z6ihvy+DgP/VcNq5UR5tlP6EFgdzDVe+ZD4PS7TMPql5nulZIaDZttZa9ZwavBjPXZwW9LQXQ0UFDAg25wiIK+F5W+PB6Sj0B8Rmw2lhquX+UIeY2GDpu79wro9Csj2lyrEILC6rx8gXff50Cytlbgi3MSba2LDxoVrCw2RCnE42EkfvM68PlngNlC1zi1ikOqEpOAHTtZr5w7SGw2ZqwcfDPQx5R8bn7gZizUXntv3+yGxgb2l88HlxMYHJT49KfsBx8ekoiM4oAfg5HK661bl9cCuFic/wV9/2sf+bsDWlqAv/p/JX72ycupy6XkPWhu8v/dxfPA4MD6sTtf63hw3//f3/87iWtXl/+Z+0y42tu5ZkdHXhy5qlQMFgLxkO7pZhavo53Zscwsga3bSLYDsQz7OhAdw4zFlm3U1oyMcLS6MZxGawpWFxuDWHg7OR7VAPfvUUWc6HVqHBhk98HQEIV6zyMWvsFK3V53QJOJrxGodVuViqZRkVFMTw4PMS1ssz07zGligsTjwpfAxCTfV3wC0NFGJ0qfTfirJBbNjRwrPzjoL70MDT5rZLVSaKjnl4LAw8MH/FopWC0vLnH42mKXA6fD32nkcPiiaGZMwiNerqwzY2UEfvE8y7Zx8RzMlpOj6AdmIzSU3Vp79gKDAwJ3brGcmpYuUVLCuTYvQxp9s0+mp5gx0ulpABcUFBiOy4GGDUEsXG5qKqxWkoo/+COgsAhwOQUunGf3QUuzXDANarWyu8Ji4UMcn8DNI5AfKo2GD39iEtvUJqf4HqKjn95Eu7qAu3cEWlsl3nmXRlAxMcDN6xIXLwADAxIjI682NAoOWR0luQIFKw2zmeWW9nZmRwC2N2/OYYv0cvcIKenD0VBPO3spgd17gfc/4JoOxOzK64JKxe68I0e511+7wo6yvHyg900K2XX65b/+0CCDr4Z6Zo1S04Bt2zmafj277C4XG4JYBAWRSLhdbJG6fRO4dBEYGZZoaqKI80XRSl8vHyq7jZtGfoFYE570sbE0zxkfl1TI19BnYfa1T06SPEREMFsRG8vvby0RiIsjMUt6xYYz774nkJnFe5yQiCdmVAoUvCx0OmDTplfz2ud/AXx1QaKl2SsQAZlbVwAAIABJREFUBiNblRpISeYgr4NvCGQt49+Xkh1St28xhbe1hD4paenL1xutZ/gcdreWcNBgdRVQXw+c/VTi177JuSdLxegocMXrctpYz4yvRsNnKswAvHcGOHqMba8K0fNjQxALAJAeujmOjHDhz1iZhZh6Mgp74d8f6KdtrN0OJCdzlPNaYKqxcWy9Kytl9FNfR1fOyEj/z9htrElrg5mN8bVlmiKZRbA7lt+NsVjkFdBJs6CQJMYY/mr/PQUKXgYOB7umbt+SuHyJJdFN2az1T08xg/HwAbMZqWlYMrGwWhkl378rUV/H/WnXbmDnLoFwZW3MC19beV4+cPwEg8HebuD6VbqJGozM4C4WdptX3/IFBxS6XewE1GjoCnzzBmAwSERHCxw4pBCL2dgQxMJuB+7fBz75CZ0cT77FRZqcIvC4kwLOzs6FhXxDQ8xsOBycZZBXsDam6MXGksEbDFwMLU0kWHPhkVxIzlkdIJMTQE8PCUlmFlvbXiUMBm4KChQEOqamKDitfcQD7Ve/KXDsBLUPAPDnfybxox9S0/XB15b++sNDPLiqqtg2GR4B7N1PbwYFCyMjEzh5SuDSVxLd3Rz5fu8uA6Vt2xf/OhMT7FS7d5ctzO+dAX7nuwJ6PT0z/tX/zM/faJTYsVMopdxZ2BDEwu0COjsYPWRlAe+dESgoACwWiRvXFtdu2t8HNNRz8FhEBMeQrwWLYIPBPxiKpRAJi+VpvYQxHIiPFygvleh6TAKVlMzsxpVLwNS0xKl3xCsnFgoUrBUYDAxOYmIFxse4hkaGafA2NcUOpJkZ70TcJbZr+5xnz37KIWoZmcBbbwvk5LycTmCjIDiYItd33hVweyTKS4FrVyXi4gWyN1MjsZjswpNg0s4Jyvv201k3OFhg02bg9/8I0IVQ1P4qvUTWItbA0fjyECqmyEJDKa4aHAAgJYaHSTimpmiJa7Ox+2N2m5vbzYU+PCwxPs7af2Tk0sY5v05og0mEoqIZWQ0McJCRzeYXS8YnsFxSWUGSde4siVNNDRl5SgpbcxUELhwOlrM6O/mMvuo5DRsdWi2H2k1PMxP4qIbE3Te2e2iQh5fLxXb3paC3h69XUc7f3byZg/cSkwNr2GGgQq3mGti7n118DXU0zaquYmZhc87iSrtTU8zWutwsf/umWKvVFMAfPcay8dyBego2CLEI1gJ79pBE3LwO/B//lnMzPB5vL7iKQinfDInZdTink9mKyUky4axNWHPjxzUajhpvbvQ7a46PUSQJAJmZtAju7ACuXgH+/Z9KzFj9pYkjRznRUEHgwmym78c//J1EXj7we3+gGBy8SnjcgNUqce5nwA9/wAPM7eYQr9w8EoDwcHjHti8NNdXURI2OkCDmFbADQa9XPtPFIigIyM2VKCymxqW1hRnYO7cYSC2GWDiddDmVHp4Js80Qg4L87b5SKn4ic7EhiIVaA6RlAL/2TWDPXoGebpIKg5EpMwG2KxVvffaBs80wau/vYwqtoEggPuG1vI1lIyiIA7Pq6yWqK9l5kbXJTywApnK/9nWBffvZPTI+IRARwWxFRubTYk8FgQeXk9FyRwdryQpeLSYmgDu3BSor5RONRVEROzYMRuDClxJXLi3tNe12Rsk3bwClD/i6Bw8BBw6+vA/DRoMQQHAIP5P3zgDf/+8SLU00Gtu2Q8BoXJogfWiQnj7JKdxPR0eB+3eB3l5mR957XymHzMaGIBYqFaMH30hgn6bCYORDsZBWYsZGpjvQz/pmYRHLBGsJmiAgJw9ISRUoeyjR1AiKwHb7fyY4mJFW1iYBm01iepoLT1Ggrw14PCyHTIzzcLLZuBm63UzVRkYxjatgZeBwMBsxPAyoBAXSR44CyclAXx9LIBMTS5uzMz7O8kfdI4nJSRL6HTuZgldKIEuE4L6ekgbs208BZlkpg6qKcg6PzMld+CWMRu/4dQ3Q3i5RVioQGspW4pZmGgpardw3XQE4Y+Z1YkMQi9nQaBhVLBZ2G10hBwd5yBYWYY1mLJh9cDqBthbOO2Gu5tmfDQpa25MgNzocdnq03L0jMDNDIrx9JzfTQDZ0W0tQqRmh+lxsfaRtcAi4cpmHWE+3l1jIF6fLpeTP/+wTid5eICYOOPgGUFDErKqC5SEigkZle/YBY2NAUwNw9YpEQgKwOWfhqbD0K2KA1VAPXLookZYu4HAApQ/ob1G8VSAhUckmzcWGIxZLhcNBZ0rzNM2joqLWnlhHpeICi4ggserr8zsEKlh/uH0L+JN/CTgdEhYLsxlHjwGHjwns3PW6r259wGgAdu9h22F7G/A3fy3x6cdcXxMTgMfDDoS2NonRMbaPRsc8n9j19tLQ6fZNlrS27wQ++IimTsqhtXyoVMxMHzkm0N8n0dQAVFcCuTkUrCenPN/xNyKCU3L/2XcFyh9KNDcB//u/oT7PbuPIhN27JXbvYaeIAj8UYrEALBa2HI2Ps2skOYWCxrWWlvTNQYiKJgvv6SaxGB2htmKtvR8FC8PlIiFOT6chXFMjcO0qYAyXKCgUAW9FvxYQHMLZFIeP8M8D/dRIaIIoePZZbnd20P9FqObPWEhvNqO2Bnh4X6Knmy3xRcX0rDAYFGHgy8A3tyU3l9OeH97n1NPqauDeHeDkKe6N893j4GCa9Z18C4iNFaipkujyinSNRore9+4HUlM39oTZ+aAQiwUwPAS0t3LDSErinJHgNWyCEhdHger4OMVHLc1MtSrEYn0hvwD47vcESrZzkNzZT4GffixRXQW8M0azn7Vg7hbIUKmAEJ3ABx/xcOruYqYhJIR6Jv+aWpgVeDzcX+7eoW00AGzdJrB7D7OjCl4ePo1dYRFw+IjAyAgzF19+IVGyXcAU+fw9UKfnesovAD78mkB3F8tgBgNbThVCMT+UuGUB9PcBdbUSthmOR8/MFGtaABcZBWRnC+h09PJ4VCNhtbzuq1Kw0oiJYZrXEEbvg937mJmamaHnwlINmxQsjOBgZgI3baZ+S7OEw2ZsjO6cdbX87+gYYM9eiS1bX931blRkZAJHj0mkpTGj19QElD4kKVwMtFpmohISWCZRsn7Ph5KxWAB9fRJ1tewMiY+nXe9ajvRiYvxipIEBmvAcO/G6r0rBSkOn5wEFUA8UFc2IzOVi+/RSDZsULAy1enmGeU4H0P0Y+OLnzB6GhADbd3BezlrrPFsLMJmYTdq+ExifoEvq1cvMDCUlkzgsVHZa7ue8EaFwrudASq+NdwNV9omJQE6eXPPEorBQIiyMZZ7aWupIltISpyDw4XHzmfWl2acnaWsvBKMspWQfGJg2c3/5+EfUViQnU7CZkamM4n4V0AQBUVECx44LFBYJWK3AxfMSD+9LTIwrmbyVhEIs5oHHzS6Q8THWTY1GDgHShSzcnhTo0AQBoWECkZE8YEZHqGC32173lSlYSTQ1Ah//WKKrU6KhDvjF516hrhFISpbKoRUgqCwH7t2RsFrZUlq8Fdi7b+05+64lBIew02PbNpZGAJahrl6md4+ClYFCLOaBw8mpnkPDjObT0jlsSK1Z2wptlYrp1rR0ujOazUBPF2u7CtYPBgfYcvrxT4DPz0k0NNDEp6iY6eC1MDxvPcPpZNDy8IFEWSnr/cXFwN59AolJa6+dfS1BraZebmsJXU31oRz4du0qjRPnm/ysYOlQiMU8sNsZ9Q30c5Gvp5pnkJaHTHIyN7TmZvpaKFjbECrqKIxGOgX29wF/81+Bn58DpJQ486HA4aMCITqhiM5eMywWel88vM9oOSgI2H9Q4OAh/vdaDl4CHUKQXBQUAaffE4iJAbq76R/SUE/Cp+DlocQu88Bm44Lv6yWxKCwST83VWMvQaoG8fIHyMonKCtqVby0Bdux83Vem4GVgigC2bQf+3Z/RGTBIw40yJATIyCIxVmaIBAYG+tkC/PgxhYNFW4DcfL/gVsGrh9EIZGbRkdNmJ6G4dJEzkRKTXvfVrX0oxGIe2O1Mjw0OcvDY5hx6xq8HBAVxAFl8goDDIdHaItHfr4RIax3aYCAq2F+fd7u5QWqDKdpVEBiYmGAHyI0b1L0kpwCn3qHZ0vMcIBWsPLRalkQOHRYYHJC4cQ0oK6WB3JYSpWT4slCSonMgJcWMjzupFNbrOXZ3vUz31Gi4mcXG8r12dwEjQ1JpQVxnUKvZQqeQisCBlGwvrakGamsknE6S/LdPCyVKfg0IDQUOvQFs2Uo32vY2oKaaQxptNqVb7mWgEIs5sFqBkVHWQcMMQErq+pwKGWEiYQKAySkKOJV2KwUKXg3cbsBqlbh5Q+LqZQm3G9i5Gzh8VCA2dm3746xVqNXMTGzfCZx4i6PUq6uAc2clBgckXM7XfYVrFwqxmIOREdp4W620bM3aJNbloo+K4gwDrZajn9vayNIVKFCw8jCbgUbvyO72NnYjlGyjLkanU6yhXweE4P63OQc4eEgiNo57YVkpUPuI/61geVCIxRwM9POhmvH2lufmru35IM9DbCyQVyCg03vfcw3JlAIFClYWHg8wMgzcuCHQ2MCWxpQU+ink5EilC+Q1IymJjqdZm9iS39kB3L4l0NGhuNQuFwqxmIP+PqDukcTMDN02C4rWZ195XAI3ttBQH7GQmFGIhQIFKw6zmWLwcz+T6Oyk9uVXf10gN08o47YDAEFBQHy8wPsfCGzZAkxNAl9dkKgo48BGt/t1X+Hag0Is5mB4iN4ONhsV9unp61NjEWmi81xIiPc9NynmMAoUvAq0NNMMq7WFWor8AoGDbwAJiZyUqeD1QqXitNKdu4AtJQLRMQy2KiskKsqVfXE5UBpqvJAScDmpsejpJpkwmQRiYl/3lb0ahIax1BMaxoiq6zFgMXOmhDoAngopmYb0RQs+Y5vVNHdyu/mlUdOAKpBT1lLyWj2exanZfXND1Or539fs1wvE9+9y+d+nJkAdcaXkdVaUS9y5xXWWkyewfQdN6vT6132FCnzQBjPQ2loC1NcJ3Lkl8agGiL8qkV8goNcr00yXggA4QgIDDgdra8NDjOJz8taPKdbzEKwFcvME+vskHA6gvZ1jtgPBZdRuZ8//xDjJjk7vJUKhq3cNw0M0zolPkAgNEwGduZqZ8d8vh+PFP6/VclJjXPyzHQkeD2CzSYwMC1jMgff+PR5+NlYrN/v4eD4fgQabzRv5lgOPHpGo7dgJHDjEPSYQydBGhRAkqEXFwImT7A7p7AQe3ANOnQJC9eykU7A4KMTCC6cD6GgHhoa40WZnrx9TrOchSAts2gQ01Al0tEt0tAM5ua+PWDjswNQUUF0NtDYD/f3Mong8fqOn7M1U0kdFv3pDocoKoOwhDYyyNgHaAPYyGR0BKiuBqgpgbPTFPx9hovPgqbfxTFbO5QJGhgVu3ZBobxc49XZgvX+3m8r9x518Lk69zbbwQMPoCHD5Eh1QpeShtbUEyMp6fqZIweuDENz7tpYAJSVAWRkzuVevSISGCmzb8bqvcO1AIRZeOBxAWyswOMjpj5s2ALHQavk+4xI4G6W1BRgafH3XMzVFK/V/+qHEg7vAxKQ3zQ3A7eHU2R07AddvCOzeyxr1q9ycK8olfvwjYFO2QFx8YFtiT04CDXXA5UsSPV2ABDM9MzOMnEPDmKHytTUmJgI7dgEH3xCY66HldtHX5OEDgYcPmApOSAyc9+92Aw/uS5Q9ZAZrx04RcMTC4aD53LmzEp0d7MI6cZJzhwLlPip4FmEGlkSOHGMGsLoKuPAlkJEB5Bcy6FQI4YuhEAsv7Hagrk6it4eRcH4hN9/1jOBgdobcuU2//Po6id6e17dqOjqAv/r/6HwXEQmcfp8HmkbNg+76NYnmJuDP/k+Jf/en9OIIDlFWOQDEJwBHjwMZmQLmacDlZofT/XsS5aXAyVMC+fl+J06fxiZqnkNOreHht2MXYIoUSEkLzFJDIKPrMTNIDXUs2eQVAO+cFkgNMAKk4FkYjcDR4wLNTRJVlfQdqa7mWPu8vPVpP7DSUIgFfDVlbgYTE0yHJSYCERGv+8peLTRqRlKRkcwKdHcDw8MSbjcnYK42M58YB8rLuLCLi4H3ztAZT60GpqcBIQSuXeHwtKYmIDtHID2dv+twcAMfHWHmw+ngYRsZRS2BDx4P28mGh+ktAPAg1euZTg8NffGMgMkJYHSUQl8hvA6tKU8bHdls1Gd0d/MagoN5bQ47hZB6PdsOZz9jHg9Hag8M8HdnZkieoqP5GgvBYPDNgKEI2eViBqq3R6CmWiInB9i7z18y8AkeW1r43zo9758QHGCm0fC+xcY+a+A0OsL7NznJLFJQEGAMB+LigHDv+xkf58+NjvCagrSM4D1uIETH9xQVRaMoH5xOvufREQodnU5erxDMpOl0fP3niR6l5HsYG2VJ0+kkQUpM5O+shgmVx8P7X1EO3LwuMT7OrODOXQJZm/g5KQhsaLV87raUCNQ+IrmoqpBIThZISOCwOMXQbGEoxAI8lCYnKQhzu3jQmkzrfyiQUPFACQ/nITIxwU3ZYuEBu9qLx+HgoZKUDGRlsyat1foPQZcLcLsFxsYkrBaB8TG2A7ucXvfQVrb2DQ4AthlmnXJyOeApNIwp9KlJkpKGOrqNAjwYI0zA7j0S2dlAXPz8jMrj4cHX0gI8qubvC0Hx4I5dEvHx7CQKMwDmaf7cVxeYRg0z8M+2Gd7X8AjgwEFGQGHew8Y8DfT1SlRVCXR28JnMyODBlL2ZJESnn5/4BAfzyzfTxumkyZvRCKhVPMSTU5jm9WF0FLh1gyTIZAJGxyiGNJmAvHwSqMlJfi4+0jM+DtQ9om5gYIDfCw7m4b1tO+93mIGixeoqfhUW8XkqfQA4XXzesrKAbTuAtHT+vtvN125t4Wc4PAQ4nMDOnTSQqq8XSE6mS+Km7Hk+Gzezbu1tQH09r89pB1LTGWnGx5GcGQyvVt3vdAAjIxIP7gH37wIQwLYdAgcO8TPXBL26f1vBykDlJf7FW4HeXoHODmZRdXqJA4cAvV7AYHzdVxnYUIgFuIn5HPESEoHC4o2V+o1P4OjmslJOdG1qBPILVrcDAyCJiI4Benuoxs7L40GY4M0eFRTSJe+DjwSio7lRezyMTi+eB/7+byUmJvwbw5e/AAoKBU6eAo6dIHG6eR347GcSw0MkFABgsXLw3GefAr/5W8Bv/Nb812eeZiT66SfAjWsSkCRnajXw/b+j/uPIMYl33hUwm3lIfn5OwuXiz9hsJHBqDV+rtRl4623gnXcFnE6J6irgr/8L0NYqYbHwELx4npF6YhLwzW8L7N7DEsZKwGoBrl7mpqnWkLgJ8PV/5dcFqiqApiaJvHyBhHhe89/8tcTDByQVkZEkoRYLID3A3v3Am2/x/Qz083n68guJSxf52VrMs1phBfCt7wiceofP2vQ0cO8u8B/+glG+BBBuBC5d4HXZ7RJvHBYIC5ufWEybKb7+L/9ZoryMrxcezmdBpSIxe/sd4PT7QEiIeGWkeWwMuHJZoL5Owm4HkhKBbdskiooAtVop260lZKQDe/ZI3LzG8+FxJ3D1snhSQlbwfCjEAtwk62olrFZ2gxQWCejXodvm8xCfwKiyvo6RZl0tD/TVJhZJycDXvwFcvcyF/MMfMBUfE0PCER3N6yooJClQqaiNuXgeuHRRYmyMUXB6Oq/99i2gu0vi0kWBzTksdV34UmKgnwfNnn38dzs7aOPe1MBsRn8//63ZcLn4nHx2FnhULWEwAPsP8PCa9hIOn/o/L58/b7UwhS8lkJ7BQzcqiiWYry4Aj2ooED71DtDWKvDgvsT9u2z53VkIFBWx3NLawp/94nMJj0fgzIcrc79dbmYt+vtJEo4cY+lAHypgMgEzMxIjw8yyjI0yK3T7FrMUhUXMUADA48ckAJUVzAydeJOfy9Qk378pktb4b7/Dn+/oAL66SHFsUrJAbh5QXQlcv8rJn28cIdmIjuaf6+tIGgqL+brzoaOdhLGinKTyyFE+M2YzP9/GBv59bByvO/wVlDlnZngvvvwCaG3lv/HmW8y8RUYJxQdhjcFgZHnx+JsMCpoa6ciZkiqQmQXF22IBKMQCjNLrapk6jk/gphaykYhFPCN7nU5iYIAizuMnVj+6Sk0DvvkdAYtF4uZ1oPS+hN3hz0CkZwD79lMbkpQsYAznQXPhPOug2dnAN78lsHM3iUdUtMTNG0B/v8TUpMDoKEst2dnA6fcEPviIh2RlOSPq9jaJ0RGgr4fR8mzQk0Di4nmWFg4cBL7xq0BiksDQEBCik7jwJaP0+tqnWzijY4B9B4D/6U94wDyqYcmj9hHLN9LDw7OsVGBgQOLwUYHT7wMHD3kj4EvAoxqJ61cBo1HivTMCQqycBiYkhCWJ3/xn1AE4HMBg/9OlQLOZug+VCijeKnD8TWo2goNJyhrrJepq+T6cc6ZCJicLHD0OfPd3ASH42dbU0IiuqVFCSoHSh8DDByzzvHdG4P0PmKW68CXw6U/5THoWsFZubQHOfkoyc/Jt4Du/JRAZSd1OVSXQUMdnJD6eh8WrIBYjI3z/t25wJMCOnXzONm1en+696x0aDRAbx4xnRweDzwf3WfbcvlMgM1MhFs+DQizAw6a1xW/jnZUlN5SHf1QUkLVJPrH3bm97fmT4KqHXAampwL/4Y4EzHwC1tUB7q0RLM23W62p5bdevAv/894DdewCNhpmm0FAgN58lA59A7s2TnCA5MyOQl8dyz779AhYLAAnUVPH16mq982EWmJUyMQ709wu4XBJqLbUH168JhIaRkPrGzs9Yea2zdRDp6UBevoDB4BdF5uQJtLUxXS4B9PZI9HTz5+12TtgdHvSKMFtZDvEZYFktEiE68UKR6WIRHQ1szhWIj2d2yGoFRoae/pmYWOonCop4/6wWZmkmxqmJGB/ntc6HzTlMHWs0LAcYjEBMtHzq53t7JSzTwLbtAmlp/AyFALZtpxX2xz9e+D1YzCyhGYxczzeusrzjdjEr49PH9PQszkBsOaiuAm7eIBlOSSUBy86hzkXB2kRwMNdvYRFQUyVQXy9RUw1cvyqRkCCelFMVPI0NTSykJJkYG+XmYzBwk42IePlNe2iIB8PEBMVsUVHUCgSimjhEx+uLiWXqemDA31kRtEqR1tQkI76+XiAnDyjZzuzR8BZG8X29PGBra1gWKC+VdI6M44ERFgakZ/DwVqv52cYnCERFUxio1/O1O9q5MQwN8vfsdmoHzOaFhw2ZzXxG3G4KEMfHgdpHEkFB3rKH1du1EM7NaHYkk5jE6CYoyG9N7kujSu/0RLudkT67R6h7eHJvpkicYmL4b4yPC0RrXty9slhEmEjoQkN5jb7rnA2WnSQa6llW6O7is+17/1rt85+V9AySEp8lu0bN35s9OdJipldJcoqEwehff5GRAqbIF3uUu9y8hwZwPVdX+X/H4WD3iU6HJ8/HSsJuZ3mrvJSDq5wOoGSbwOGjLDEp2Yq1C5WK5b1t29m+3dlJIn3nNgObrCwoQs55sKGJhdvtJxUzM0ByNg9XbfCLf/d58HgoBGyoY4p4aoqbWkYGcCiMJGOlDoTFQkq+P4edG7A2iL3YPitnjQYIDRNITpZob2MUOjwEmC2AaZU2xbExEoYb14Cv/TIzDZtz+AUISMnMwic/YW2+uYkiQ7VawOmQCNL6hZE+eDzUB1itPLSrK4Gf/AioqOCfIyOZ4QgO5uaw0IHjdPK1pIelELXXuAvg74WFMko1GqkVmd1GGRXF2r54QdrUZyvsu3YfOdHp+JoJiRSv2u0rO845NIzlmoWey+kpahV+8PckeD4yl5rGkkVEBEuK8yEunh0pC8E3l0SrnZNeFr7/eTG58N2/uZ+jRsN2YJOJJGeuhfnLwjzNcktlOTUWYQaWQfbuU6y71zp8gUB+AcnvhS+9vhaVeGLQFmZQPuO52NDEwuEg++zv44aWmUWx4MvAamUa+/NzQE2NxJ69AuVlbD+LMNGkKHqu1eErhtNJ4VFnBw/wpCSKF7M2+X9GqyX7bmyggLOpkYeGaZX88aem+G+f/VQiLl4gPJwiTR+EoP34pmxu1tNmgZkZHuBqNclQU5PEvgNc4W43Vdz37wJlpRI7dglUVrDzIDcfOHqMXwajwONOihIbG55/eOn1vBcqNQ/JYycE3jrFCNjtptCx7CEwNi6eiDeXCr4OO0XeehvQ6fheBgdZu5+ZIUFNScWqp2Cbm4DqaoFHjyRyc4FjbwocPERC0dMD/P3fAm1ti5h+9hxotSRM9XXMXvkwPMzSxmIgBK/n8BFqdXywWoFbN0lPsjatvCh5ZIQOm83NJKsHDtIQy9eVomDtIzSUOqSjx0iABwaAc59xr8rIVCza52LDE4uGBtZmOZALSEx8uafDYubAISEkioq4+aqEQF8f2wt9BiurhekpoKsL+Pwz6gKM4YysSrbxgI6JYYYmOJgDySoqaEFcXwcUFPGerAZi46hvMZuBa1clHA6BkRFeX2gosy7NTcw2uN0sgaSlM4qPjGLpqaGO/hIaNduF794G7tyW6HoM7NrDTX7azKxCegbfr8XKboaGegnbAuORw8O9w7j0LAE87uSBEmbgtT2qESh9SN3AgYOAaomPUVq6QHoGSw2trUDXY4Edu6hlGBygIDA0FAgPFysecS8GTicPaKuVBDknh+UN3zTgtjb6XrwoM/E8pGdQWNnZAdy4TkFnQiLFsOVlLyYsBgOzOmYz0NdHMpaUzFJndxeN1/gZsuSyUujrZbaiqpLkNi0dOHmKJH01MpMeN9Dbx1KMeZplrbi49T+O4FVhZITrbWKcmcKoaGY1g4JYJj/+pkB3l0R3F0Xa1VVcBxmZq0/2Axkbnlg0NVI4FhwM5Oa+/ERTi4UK9OgYgcJi4OAb/PvSh9x8i1a5/3l01KtJKJOIMAkkpwK3b0oAApuyeTD6iQWJlc3GA66/b/WuMz6eZY+8fB4ukxOcrpmZxSjUI4EK0TmyAAAgAElEQVQ7t9jSGRXN1sP8Ahof+Q64oUHWPsfHuQncuC7R1cVMQ2oayYfR4O16GCCpHOgHHt6XTzICdrtXbzHn8DEYgWTBjElrK1D6UMJgEMjJJbH44udseUxKlvC4BVRLrOPn5gFbtgo8uCdR+oCsxCPZiVH6ALh0EdiyFSgq5me32ggzkOSFhAAOh8TQkEBDHdDYSJOtnm6KaD0e3sOF9CrzoXgLCf7ICHD/HjA2JpGbK1BRLtHY8OLfj08Adu8G7t1jx8kXnwMFBSSSj6qB+3cl8gsAj0cspqryQvjGyjc2AnfvsJVZr2db7f79YlUG+bmcbHUuL+WasVpJsAqL+HkFBwempisQ4SthNzdSlGw2e43fktj+HBXFe7pzF1D2UKCykrqv6iqJTdkC8Ql+DZGCDU4snA6gs11iaJBZhIzMZyc9LhV2O1PDxcU89FQqPpBBQUBLs8TE+OoeCsNDbOnbvlNgy1ZO7gMEJifoBJmbx0hOq/W/f4eDrZcjw6t7rTm5wL/6NwI/+keWFX72qYR21uAsi4XX+GvfFDj5FpCTQyfDD78mkJgE3L4lce2KxOfn/LX6km3A26cFsjez3FK8lVqN6iogVC/hdFEDkLWJh1p/H9vK8guefu/aICA1TeB/+G3gJ/8kce0q8I//wOtTqalf2bFL4M236Bo6t6tiMe99apKukY+qJc5+wjZTt9dcKzYOePeMwJHjK3Szl4iMDCA0VOLLL5hFqChnF5GUfLazswXa1RJ2G5//6emlvf6BgwKxccxc3LrJltSb1yQyFimOKy4Gvvf7dOusKKdZWkgIDwwpeX+PHuchsRKlELeb77HsIc3SbDa+9qnT4qV1WovFxAQziz/5kYTDzo6da1ckOtrZapu1ye/qqmBhOLyuree/pBX73v0skVrMEkajQMk27hMGI7D3ADA8IvCjH9LUzmSS2LlLQKtd/27Ni8WGJRYWC9OlY2PcBFJS+NC8bDpLevwiSV9g5NvcZh+Sq4XJSaaqd+7mph0VzQ6AmnF/iy3A+mBwCCP9+HhG/SMjEiMjAhERq5PWjYig+loIgd17JEZGmJJ0OgW0wfx+Wjq1F+kZ7GaRktoLnY5ZifZWEgSHXSAhCdi8mVmQSBMNp779G/SOGBoCLBbxpHaakMiDx2Siz4U+FDh8VCA2lpmCiEhuGtu2UzBaWMw0uNPpd8bM3sysi69Vcu8+4H/51wLFW3hPfdFMZBRw6DAQF8fWS5/gMCeX7pqNDSQ4Pmt1n8h0957Fj7RXqRjFn3qH3TK79vjtvn0wmYDf+R5b5nJyKeIEuAaSkoEzHwrs3OW1xE6gB8d3f5elhfFxlv2iozkdNzoaGB8TCA7xt/waw4G8AoHtc8ZNJ6fwfbrc1PuoVFyHMzP8LCKjBGa8gtvoaM6GKX3g/32NBjhxUqCwiNeamMS1m5Mr8OvfArbvAHp7SZB1IRJR0dRPFRWLFWv9NE+zpFj7iM9pTCw7QbZt53O5GvX2kRGS4MhIEuvde4GJCRpxNTfzmVaIxeJgszEb6nZJFG1hCdtkAhobBDo7uWf6shKbN3Nt37vDsltjIz1Y9mn4/CrYwMRicpLpS7OZD9DmHB4QLwuVmhuL3UZTJt9gJLuDB8pqM1qr12NBr+MhpRJ8ny4XMDIs4XQ+vQPGxDLdX17Gum1vz+IGc60EgoP577/5FuByCdhmJPr7BWw2aiYSEp6NNoWg2VF4BL0ibDMS09P0WohPePozTc+glsE2Q8I0Ps6atMk0/3Co/Qf4NRsJifw69AZLHw4HD+S5NVaTCdi+k19zYTIBe/byazbi4oFTb3PTGh8HJsZIaEympQ/E82U5jp3g13yIiAC+9Z1n/z4oiPfu7dPPfu9Xf52Ruu/64hOeX88vKPS7bc5GQiI7f2ajo4NCaqeDjqhp6dTKDA4yAyK8z21wMJ/FNw4/+7pGI4nUvgP+dmKDQSA2lr4fK0XqnU4S02tXKTgWIGkt3sJnbLW6vsbHWMrNzmGKftt2rtmWZn7t3L0617EeYLMDzU0SoWG8bwcOkRhLCfR2AyOj/p+Ni/c7z5rNDNyuXKa2JT6BAeRGF3JuWGIxOsLFNzNDlX1hsViR+SDBwUByMqPNzg6J3XsFxkYlxsfYk/86HD2l5MJxOFi3n7Fx84uMenYTTEhkSrW+TmJ4mHqCtPSVIV1LgVpNa+m0dGaBhOrFG7YQnAMRpOVhPN/PMzPDmmhMLP+d5Rw4ITpg02beW5VY2cPEYABCvUQqEOu2oaEkyLGxK/e+p6fYwnfzhkRvL1PPJhPN0G7f4ueWksrsxIsQFsbn1fOkNXhl7bQnxlmC+OLnEo87uT7e/5DW5KuZkTR7TcG2lFAD4OuKcTppLDdj3eCn2xLgcjL7kJjIryANn3Odjq63oyP+e6lSkUS8/wE9di5/BXz5ucTmzSy5JiYp2pYNSyyGBpnGtFqor1ipjIXBAGzfKXDrhsTVK8DgIIWBKhVw4oREfMLqLvbQUG46w0OM0pOSvZMjHUyhzj0YYmKY0g8OYTq+sR44cGD+136V8FlWL9VcSKgAzQsOEd9gqpcpe6lUK++H4IOP7ASqyHwl7t9cZG0CCookGhqAmioahAVpmG3T6Th4bufuxRGL5ZLFxaKxke2rgwPcO0q2sVwWHbO6karbzWDB7fYPd3O7/WXNQCOkgQwpSchcLm/pGvx/j4el8tn7pBDMUuYVULPW1sbsZUU5S26n3wXUG2gkxHzYsMRi2NueaLMB0VFMZfsOCin9yvb5jIh87oQAU7fO2Z4FgoLI1haBjg6J2zf5eoXFHJAVGfXK39pTMEXyvfX3kXmr1QJNjRIajVenMKc0E+W9FzodyVdjg4TNpkQ+Cl4tMrMknE4KEhu8w/Dsdqad8ws4OXXL1md1IqsJt5smaTXVrK87nFzr+w4AaWnMlKwmNBquX59zrJQsU0kJREYrI9qXAmY78eQZ9HnKWK3MAs3NZmu11E1t2yHQ1cXBhg31EnfvCOw7AMRoNnb76YYlFqNjZJpqtbdXOdHPSp1OTnycmmQL0lzExnLAFQAMDXK4lQ9BWtbmfvlXgHffF2hppkAtOcVvsLSaSEwCduwU+G9/LVH6EPj4RxJDQ8AHHwKHj0gYw58mDcZwXq/BwNphe9urm62gQIEPwcEsJaSkzhI/S+ostMGALoRR+OuEzcbSYE0VO7zUKtbZjxwTCDOsfoYgLIzre2hQor+PGqPBAQ5Ai1fmWCwJQUE8A8bGgLZWiZ27BR2Ih9kVop9DLHwuryXbgMkJZqj7eoGqComGOgHNlpc3W1zL2HDEwuViJD40yGxEahoQE/v0IpyeBi5/RT+K4eFnX+PIUbYWjo8B9+9xSqUPUVFU4O/ew9qrwUBRWegqRzM+RHgdLL/5bYGODtaHIyO5IUZGPcuqfXMs0tIFenskzGaKXGNiKHRUoOBVQAhmDF+H+ddi4PGwC+PLL9iJodVyDRUVc3jbatv0AxTNbt8hcP2axM8/o6dC2UOWMvftkwgPVzKNi4VOD2wpEbh5gxORh4flE3H/G78mkZr67L0UgntpTi6w/4DAvbsSPT3AZ2cldDqBqKiNq7XYeMTCyXbDgX7Ol8jaRCHfbLjdwMQ4R4gPDvDvhoa4sahV9DPI3kwjntKHQFODN/WoBpxOdoM4vAOlXtZwCyAZmltL9UHAb4Qj8aw5kVpNkeLp92iWNTzEaX36BXr5g0O4ObW2AuOjFLmmpCrEQsHGhdlME6qrl2m6FhPLTEVu7vJ9MaanGMSYzSw9hoYB4UZmNX1aDauVbb1TU/56f7jRP9+lZDvQ1MRWyYH73A/SM9givJE8FWZmeD/NZuqsQvUM6LSzBgI67IDFynvpcFB0bTSyJTckhAFYd7dAWytbnKWH93LLVpY95kNICMX6x06wg6m8FLh6mS3wiUncNzciudhwxMLhpG6gu4s23vkFQEry0z8TFQX89ncF7A7/If3JTyTOneX8huItQGIy8NVXEqlpAgcOAe+c5gOqVrFjYCW7KKxWqr99vf2zoVJxImRYGK+1p0fAYvZ/P8zAzERkJL/Cw19c+/MtspoqoK+HIte8fOEdCKZAwcZD12Mag3W000Y7LR04elwiPWP5WYHGRh5E1VUUrxZvBfbskdDrBTRBDCJ6uvn9hw/Y5ZGUzDbl4i3UT2VvBv7oXwr09gI9XTRni4tj1nEjtTz299FLorqSZCI3D9izVyIhkZ1iAAOrhgZmmQcHKFzfu4/ljMwsBoHf+BXgzZMsYfs8f4zhC2ekTJHA0WMSVZUcPNnXy1lRUgK/873V76gLBGw4YuFyUjcwMEA9xObNz2YV1Gr6IgBkwsxwcKG+d0Zia4mA9PDQtVgkXE7g/C+AhESBlFQgP19CrOCq7u4Czn4i53U01AYBH32dFsKDg8C1KxJ9s6y4M7PEE8+EqOjFseeQEFoTxyWwTbWlGfOWhBQoWO/weLgH3L8LfH5OYmKCGT2Xk4d+bOzSypxOr6vtxQtc12YLTcVqa2mLPtBPj47YOB6En3wM1NdJQAhYLdwDah8Bv/4tgR07vdOYI3mYRkfzkAvUctJKw+0CzGaJi+d5/wYH2Eo+OspW/6EhYP9+ZnXGx9m6/MXnEiqVgN1Ol9jODmB4WOD0u35nTV9gqNPP728zF2zdF0hNk0hKZrm5uVmiupoOx5oNKOTcUMRCSmYsurpoLhNmAFLSeOA+DxYL8OA+h04Zwzn7IzMTaG+nyZZthiWQymmmI1PT2CaXmcVFvhJwOn1OmPw3pce7KZlZ0jh0mKSnooLGVlNT/n87MpIZj6XMbggKYgovNgaA5Cjo0RHev40UBSlQYLcDjzs4G6bsob/NdngYuHFdQAiuC9+B/iLiPjEJVFcD3/87pspzciWKigUePpDo7uY6z81j0FNZDty9I2GeFjh0mELylmbOw8nNI/nwjSAIDV35qa2BDquVmaRzn9GDYtMmfo2MeLM896kNKyyikdiD+2wJPXocMBrpL3TrJmA0SmRlCYRHsNsjKGjxQ9xcLmaSx8b9ZwHg9UlqkqisoCfL3HL7eseGIha+QTMDA4zE0zLYSrRQLdI8Te94l4vudpGRTFOqVEw3JiQAm3MFoqOB61clrl8FpBR4+/TKEYv8AuBf/28Cbm+PtdMJ/OVfSDx6BERECBQUUbE+0M/x4Nu2cfEAXCTBIUuLYtRqki5TFKOx4SFueC4X2bdCLhRsFExNAlcuS7S0cM2HhJBsNDcBjx9LdLQBJ04CR44LJCa+uOW0s4OTcB8/lvjGrwl8+JGvpVbg/l3gwpec+9HdBfzsE5ZeDx4Cvvs97ivXrgDT0xIdHRLNTRRvblQMjwAV5dRE5OQCf/jHAnHxwNgoUFQkcOG8hMUMWGeoexgcpMjyt3+He39fr4DTyeF5ZaUSxVuWbvluNjOjffWyxPlfsBXZ5bUfePwY+M//SeJf/PGzOr71jg1FLMbHyPjN035DlOoqHpRx8Yzu53aH9PQwO1FcDOw7IBAaxp+PjQW+/RtMY0ZGMnU2OUH76Zbmp53aXhZard8oanSEMz76+1lL/fo3JNLTBSormVUJD6e6c2ICiI8XyMoGsjcvvTSjUjG1mpbO1OvgIOvLaekbJ9WqYGNjesp3aLB8GhHB+TEWCzsGWls4Lt3hBGZsHESVk8v94Hmtp8NDwNSkRGoKg5yqKqbODQaure/+rkDmJk4krqmWKCgUSE72l2YTkoDsHIHJCYnJidW7F4GI6Smgq0s+EWm2tTEjoVYxIDrzIacjOx38rKxWaseior0OpQ4gezN9fYaGntWvLQSHg+dJTTVw757kM9LK8yMzS2BoUMI8DdQ94rMzOsrnYqMEZRuKWHR2ss42McH63MQ4cO0Ka3O+AVKxcVzkWi0fnO4uprgSEgUKCvFkYiK8MypMJq9YKpSDm8LD+XqvyvthYAC4fo3XvmUrcOSYd5S1HZicoCB1sJ+sPTgYGBzi3yWn4ple7Nnwjbu2WrgAbTaWVHQ6qqdbmiXu3ObkRoVYKNgI6OtjebGmhjqL/HzOT3E4BBrqaTLX18ux7E4n4HSQwOfn82Cbr64+OiIxOsI6flsbx88PDnDvKCgEDhzk/mO1UMOxZevTg8T0enYoDA4sfYLseoN5mvcI4H532+uGqtPT5O/AAZaKnE5gcEACAjCZBNTeU0+tYamktUVgfEwuulzscDDAa6gHblyXuHOLDsX6UKBoM7Brj29AHcsyjY0kNjt2bpwOkQ1FLCorgP/6Vxxx7PHqFAYHWGdLTQX2H6RrWsk2rw32MNDdTXOrtDSvwZWKkUZTg8T/+icc9/y1r5OUDA5I9PfTaGUxop/loK8XuHRRIj2DG5FezzpvUBBbp3LzOV8jJAT49KecvCg9Au++vzCxcLmorG5tZVanp1uivp5s2+5gXXfGKnH4qIBJaTtVsAFQV0s/G7OZbYcH3+BXpAno76dQ+/IliSrv9FWPB3C7JUJCBDIyMe86GR1lBrSxgftLXLxEQgINlkof8DD6zm+KJ86P8x12UrJEs+GJhbcFuKmJ9/5xp0RCosD0Y+DWDY5S+OAjGgTa7M8/1K1WvpbLNf/352J8nGTh0lcSN64xq2UM5/lx7Dhw7Djw83Nse713h50/SUm0/1aIxTqEx8OHR0r2Hqem8zCdmuSY4elpib4+ge4uYMcOCoMmJyTCI/CUs54miCrgbTuAlhaJP/8zih17e1hjPXBIIDl15a9/bJTC085O4OTbQNEW8SS1VlAI/I9/KBAdQ4LhdgPtbQKdHUBDg8SxE8/m4Dwebk7dXdzoKisYRfX3MRqYmOC98Wk7rFYKRxUoWM+w2bj2K8pphgUJbNvGNkSTyT9p99gJtjKGGyXKShk9X78GqFQShw4L5BcwwJid/vbtQU4n8MYR4NAb7OgqLxOoqpS4dgU4foI6i7meNT5ISdJht6/O/QhUkMixQyevAPj6N3gv+/uAslKBxgaJxnqgsFDC42aJZD44HNzb5hvfMBsuFwlITTVw4xpJxcQEsyM7dgocPgps30F/kX37Wa6qrQG6HkuUlQrUVHNy9EYIzDYEsZg9YEatJjHILySzbGmhEKu9jQesxUx9hMUMaLUSpghqDWYPP1Kr+fCcOAlcvcR66MwM02p5BRyVvdJ2rlIC/V7DLgFgU7ZAega/53aT9BgM1IpERfHn4+KB/j4KmOZGPnYbF0VbGxn1/XucJTI2xj59n8o8LJTllBnvwrPZ/SJOBQrWGzwelgAf3KeT5fgYtQ8l2wS2lPiF3jo9kJPjcwwV8HjoY9DU6B3xrpcIC6NN+ey1otcLGI0SOh2wZ4/Ae2dY7zeGAxMTAl/8nPV+lWCQMnedeTwk+mq1vwNhoyI4mPdOH0r3yw8+Yim6q4v35+EDBnsWi7fbY+5AQ0nreCEktEEv1j/YZpjNvX9X4vYtoKODmeydu4E33wJKSpjdBkggdu0WyM2TaGxkhvvGdVqDG43rP3OxIY4Hj4eH6OQECUZSMrBvP/Dt3xQYGgKqKjia+e5tiZ5uPjhjo8CJN4ETJ2kMZQx/+jXDw9lvvn07X3tsTCA21ttXrl35uQFS+ltMc/P88zykBOw2iSuXgb/8v4Df/X2Bo8dJfLo6JSwWPuRzdRGjo0BtDXDxInv06+sl3C4KjFIz6WORlgGoVAI/PyfR2c5FODZGdr9U9bQCBWsBTicwNCBx4UvW0MMjgJOnSCrCwp49fLKySMBVKnYY3L8LPLhHXVNYqETWpqcnCCck0u23r08iOob7CMD15FtT01MCYWFASqp8xlzJ7QJsNono6IXb5DcCIkxATp7A8LD3fkRx39WF+McVzMwAU5MCUdHymT3ZIwHbjESonp/DiyYpT04yU3H1MstkEREcQnbyLbb8z+4I0umYyXjvAwHbjyXaWoDPPpXIygIyMgB96PpWcW4IYuF2M7U5OMiHLSf3/2fvvYPjTu/0zuftHNANNIBupEYgQAIEQJAASTDHmeHMcJI4GuWVSvLeald79p19e7cu+3xnr12+P67qSre3Vq3lVW3SWlqNNKtEkcPhDIc5EwAJgkTOGWjkBjr3e3883QADSIJkM4HvpwokQvevf/F9n/cbgYIVAlYrA6GqN3N173YLXL4kceM6s0HOnQWEhgVVVq66vTNpvKV3cgpVaGoaVzNPsozu1CQQDEi4Mvg58UHOYBTIywPWV9Pvd/4cBU57G+tp7Noj5stxx2MpLpxnilRtDQOM0tMZJ7J2nUDFWrp2HCnAjBcYHxMIh9jcqLMdcOcoYaFYnvT2AJcuCrQ0M5hv5Upg+w6J/Hyx6IpWq+WEtnUb4PWy8NKJz4Hr1xnAmV/AOgrxughOJ8eKqSkKl9IyPndtrSycZTJxUZCWzpo4vb0S9dcENmyk66O+nivxFYVAVtbynpwehM3G2LhwmLEWtTWxWLdhoK5WIhik+MjO4blsa2U9kqoNAgE/XVeXLlBMVq4XMNwnKL2nGzh/Djh6hOOq1cr4ur2vMCaP4nLh9ULwOu/cRXfIQD9d2HW17MNUWbW829pr/+zP/uzPnvVOPGkCfk6kFy/QNPbKq6xal5dPoZGcDGS4WHfCoGefj5FhxjRMjFNdpqTwRtFqb1+1aDR0rZhMT9Y9IGXMDaLhqqdi3UIQpUYTq6thBQb7aY3w+RhHsmkzK2/a7XyAPKPsb3L8GM15E+McxCqrgNf20U+4aQutHJlZrLk/N8dU1sEBdk3MzaPVR6FYLkhJX/vli6yie+0q3ZnbdwL73+Z9fy/ztU7HCcxoBCIRxjV5RhmnZLGytoLTybEjFOICoakRMBgEZmdp8fzsU4n2doqUd78gkJvL5y7eZTkYEGi8CdTVSDQ3MzajevPL/RxGI0AkCrQ0sQeI3y8wOQnU1kqcP8sU1G3bGJA/Pc1Mjt5eQECgp5su7NorFH97XxEoWnn3wjCeLVdby0DeE8f5maWlwPtf4tial7+4SNDp2ARyaAgYGmDQrl4P2GwLLrLnSVwkslr0S2GxCIX5IPf2UAQUrKCF4laMRq4eLBYgOZlmzau1XFVYrTSJZuVwZf8s4gs0GmDPXmDnbl78O1PZ3Lm0vuzZw6jlmRmBvHwKCn3Mf+gZZeDRwd9IXLrIG764mClur7xGsZXiuF08GU0096Y7OdA11LNzq0KxnAiH+dxcuUyr38w0Y7Bef0PA6VxaSebSMj43He3AyeOsWXHqhMSqYsZDpaVx7NmxCxgaErhwXuIHf8HU8VAIKK9gRkh+AZCdBXzzW9ze0SPA//5vGESamkY35auvs7vqy0y6k0ULu98R+Pwz4B9/IjExwUWVxcJzuXETF0f73+IY/9EvgL/+kcTkBH8uLGS7g31vLD6uh8N0/16/JnH5EgN7S8sYePvGm/d3R2m1gNkisGULMDIE1NYwyDc5WeK119kVd7lWS30phEXcVDY0yNzzghWLlGwVvBEyMoHK9cDUFMXFpYtA402J7PO8EbbvfHKppA9Cp7/3BdNoqNBTHHTNBEMLwV/xgLSbN4DPPqW4CIWAslJGtm/dzsZqySl3P1xGIxskpafzoWprlfAksPiXQvE8MOsFjn8uWTkxxMJJleuB1WUU10tBq+VEs227QH8fJ7mOdq6Mi1YyG0Cno2n+C+8DW7YK9PXRvZiZxXGpeDVL6esNrPL71tsU/x3t/IyUFLopi4tVALUQjGXYtZsuq8FBgc4Onhd3Lt0iubm08tpsAps2U5i98irrhBiMtOqWld9bOPp8HDdvNNCdkZTEDLyqDSyW+CCLgxC0aFSuB9ZVCnR2SHS0A7/7rcT+t5ZvY8dlf2sGgzQlDg9J+AO80Zyue4sDq5UP7pZtgMcjMNAv0dwE1NdLZOewsp7R+OBAn2eFTsevW0tWRMKMlK6tZV718DDPw5ZtmE+Lu9OCc+v20tK5OrBYmHs/5mGktdn8fJnyFIpHIRjgM3HyOC2bRiPdgevWsfjdw0Tw22zMDrjRwEq17W1Ac5NES7OYr2NgtwMVa/k1M03zfLy43q0YYlbUFYVcGAA01av4pgW0WsaRFRZxAdnXSyGYdUcJbV2s/1F2rJ5EKBRrNnmfzqVSMlj+ej2z53w+do9dU8EiaEttLOZIZVzfnle4vYEB4MhhisPcvOXZ/XTZTwveGT64U9OALQlYtQqwPOBCmkxUsVu2ARuqBSxWNiK6cJ5+0Kmpp7PviSIYZDvh82eZl6/XM6DstdcZ7b6UhjtOF32R0SjFxdAgBYtC8aIzFSvdffH8QrPBN97kyvRhe+NYrcCqElbMLC7h5NXdBbQ0SQQCd9dKSLIxy+t+YsFkYoyG0/nsrKUvAjodx6jMeyySAF6PlJRYEG3q/a0+kQiF3/Vr7DprtbK1w9p1QEHB0oWFVkvheOCL3L/xMeDsabrZR0fvXa/kRWbZC4uREaD+KgWGK4NBj0tpc6zR0DS5ZSv9cBotTWHNTVyxvyh4vYxGvnSRbgy9ng/Glm10fyyWQrcY2TkCpWWMnO7vAxobWZFToXjRuXGdcUfjY7QO7NpNUZDyiIWMNBqgoECgtJTP1+gIzekN1xlPcStC8PUPegaFWPhS3JulnKOlnsvhYV6zmzdo9XakMmsuM4vulYfBbKYY2byFolNK4OxpiVMnlLB4IfGMMkUrLizWVmJJwgKgqi0rZ4ZEUhKjuTs7GMzzojA1ySJgjTdZ7CctjVXi1q6jX3epLp2cHBYVMxmB/n6J5kaakBWKF5VIhIuE+mtMLff5aLLe+yrL8j9O6niOGygtE8jKpom+P7YoedGsnS8znlGmqA4N0eqQmwesWbvQqv5h0OsZw1a9idk8BgPdZZcu0Bri9yd+/58ly19YeICbDSwU5crA/Cp9KVitnHxLVlNkBIOcVKdfoMFhfJx+48EBquwVhVTNhUUPt53sHIoso4mpU60tEsGH6AaoUOqlunoAACAASURBVDxvBPw0R9df44JBCGDNGqYeJj2myyEzi/ERpeWsIePzAb3dtCAqXgwmJhgPEQ4BrgxabEvLuDh7VKrWMwXWmkSLyPXrQM0Vpv0vJ5a9sJiaoisgGgWS7bwpluobAwCDnm6A5JSYsOh7sVYdMzNsKOb306e4upQiYaniKk5SEs+d1crj7+3lA6dQvIiEQsDoqMTB30rU1UpYk5hyXbVBJKTkMst6s4CTzUZh0dNDy6nixWBygguyUJgZPdnZDzd3LIbFSgv4gfcF3LkUmz/5B4mWZrmser8sW2Eho5wAxzz0jyUns3GYxfJwmQx6A90Aycmxcr/DL1ZXwXjUecBPn3FhEYOXHjarhYVdGCWv0TAAyePhgKlQvGiMj8VN0Vw5ZmayRP/qUmZjJCKWwWSisEiy8fkbHGAtGMWLwfQ0Y/QiMWGRlf34Kb56PZCTC+x/hwLD52dFz2tXuWhdLixbYRGOMBp7aDAWLbxC3Dda+F7o9Vzhp6TQJzsxzoZcLwrT00BfD5uH2e1Ajlvc1TdkqZhM7HOQlk5B0dbyYgWyKhRxOtqBz48JdHdzfCgsArZsk8gvSFwknclMv7wtidZOj0cuO1/6cmZuVmJynKXdU1KZwpqI2iFOJ2tplK/hmDzmYRn5q3WPv+3nhWUrLCJhpnj19Ejo9FyJ5OY//Hb0epb2fVyf67PC7+PqLBziTezOvbsh2VKxWICKdXzA5mbZDXV4KLH7q1A8SSIR+s7raoGjH0tMTbKexBc/EMjKEjDoE5d2YdCzBozJTGvnmGf5BektZ2ZngYlJ3jNJVlp8E1G3RwjOK7t2C+zZy58vXpA4dZLpp8vBJbJshUU4zHboPd2AXsdiJO5HqKsf78HxvBbEehDhMK0LkQjjJLKycd9mO/fDbMF8Ma3ZORaOGR5O7P4qFE+SYJABm9euSXR10723pkJg81ZaJTUJbGetN7BircnE53B6GgipFO0XhoCfMTHRKGCxyvl2B49LPMW4fA2wcZNAdjYt4Q3XJWqu3J2S/CKyLCtvSskaC83NDJjS6ZgNkZnJCfZhtxWJ3J5rHI0+/HaeFbcW5LFYONBptY+2/wYDsKo41jdklhHNQ8pioXhRkFyFHj8m0XCdrc1LSllFMccNaHWJfa41GvaFYHMyCvxg6MUZO152AsEF64HFDNhsElKKhF2/dCfrpVSuF6i5ItHfB/zyIwmXS8CV8WLXLBFSPrg8xxJe8lxx7FPgL38gcf0aTUsAy7g+SgMxCYqK5ibmNGu1TD8tesh0zWdFdzeD1CIRFvwqL2fa6aPcs1FJl0pzM+NXDEbgP/1fAv/8f0r4bisUCaevl519/9tfyvnaNikOBljmuGNFkxL4edHYoqShngHUAMehvLwEfojiidHYCLS28Pv4mK/VJe4eiUpaKtrbaaXQaCg2/uiPBd7Yz3Tlp4nqbvoAtDpWOguFafoEWHkyEYTDnKhvNCRme0+Tzg5+JQq/T6WcKl4cgkFmig0MsHAcwLiHMQ9jLp4GV+uwrIL0Xhaam/j1pOntYe2hFz0WZ1kKiz17WXr1O9+UOHPqWe/N8iYRPkeF4mlgT2bzvaSkhZipF9ncrFg+yNg/Gg1d9k7ns96jx2NZukIABknV1gJjY896T5Y3paWMX1EonneCQZqcr9axeq7QAEajSGjApkLxKAT8kk0dBVBZJZDjfvpdTxPpClm2wkKhUCjuREogGJCIRmmtMBhFQlIIFYrHIRgAIhHOswajeCaWYCUsFAqFQvHMkHIhU04jkNioV8UzQQVvKhQKheKZEAwC3hmJkRGB5GTA4ZAwmoSKV1HMo4yACoVCoVgy3hmgtRX41UdAzWWJiQlxW70chUIJC4VCoVAsmakpoP6qwA//q8Tnnws26lJFvxS3oISFQqFQKBSKhKFiLBQKhULxyISCwMgwy6VHo6zBYLM/erNDxYuPEhYKhUKheCTYDp6tEzo72F+jsgpYuQrIyHhxmzcqHg8lLBQKhULxSJw7I9HTzfL+c7Nso/Crj4DXXhd4dR+waTNbhCteLpSwUCgUCsUjMTUFpKayYZbewL4rly8B585KmEwC5WsAuy2x7egVzz9KWCgUCoXikbDbgar1wP/8vwDJyUDjTeAv/hy4Xk9x8ZWvAmaTgFEJi5cKlRWiUCgUikciNw8oLRew2wUsVgGnS6ByvUByCjvI9vQIeL3Pei8VT5uEWyzCYWBmmtHBOj1gs2FZ1+KfnaV/EQAs1qfbOCYQAGZm2Lp8KQVq9Abun9l8d1fSaBTw+fgVjQCO1OfLNyolMDEOhCMLx6BT9jaF4pnidAnk5wNGE5/HJBuwciXdH1NTHB9DoWe9l4qnTcKHZt8c0NbGpir2ZGB16fIWFqMjQH8fv19RCJhznt5nT00CLc3A9DSjsx9EaiqQ7QZycu4WQOEwMDICDPQBfj9Q/ZwFXUkJtLYAc3MLx5CU9Kz3SqF4ubElAQ7Hwhiv13GcMZkoLBQvJwkXFiOjwEcfSkxOAquKgYIV4rmaoBJNzRXg6BF24/nK1wSyn6KwaG8D/v5vJTraKS4exJoKgddeB/a9frew8PuA2ivAZ0eB0VGJghUCdvuT2e9HIRoFfv6hxED/wjEoYaFQPFvGx4HBIaC0nD/PzLAt/ejos90vxbMl4cIi4Af6eoGxMQb2LPdSrxPjEt1d/H4pk3sisSYBefl0a3i9dGH09dOCMj4GbN4CpDsXXp9fwNWEbhGhJwQtFGYLYLU+f62kpQT6eoCuLgnPqFiShUahUDxZOjslrlwWyMtj8GZnB1BbQ3e4O5eWRav1We+l4mnz1LzUUnLVGQjQ7A7QfKbX0T93r9cHg/xfo2GxlcX61IdC/IpvV6vldnX6290wUgIyylzrcJgTsVbHCfVOq4qU/OxgkN/rdYxR0GqxpC5+UlJUBfyx/deyEt293h8I8BiiUf5dp33w5+UXAF/6qoBvlscTDALHP5c4cZwuqS9+SaCyauH1FiuQnMLvZ2e57VCIbY8jUQ4CGzYAM97brQHxcxYK8ZxJLFwPnW7hHIfj5zXKbUow/kPGrslixx+N8jzFj10jAIOR58/n43seZPEKhxfugbhAMhiWtwtOoXge6OkCLpyTyHAJOFK5qGlu4jNctAooLGLcheLl4qkJi1AImJhgGlJvD3+XnALk57NS252CIRAAJieBpptcjTscwOoyIC3t9tdFo9xeZwfQE9tuejqwYgVQsOL2mzocZrvfri6B/j5uPysLKFrJ1966Tb9foqVZoLmZboK8PGBlMZCZubTYg2AQGB6SqKsTmJlmvEnVeu6/xXL365ubgI527pPRCGRmMT7F4aC/cjGsVp6/aIQTcSAANDcLJCVJaHUUHqVlC6/3B3gNLl/kZzidQGcnt5+WTgFxJ9Eo4PdJdHaK+f0LhxmUW1oG5LiBlJhYGR4C+vuByQkKk2iU2w+HeU0qFzl+vw8YGuLrpqcBswlYV8VjOX6M56xgxb1XPdEoY0M629lx0WRirMuaNRIms1hUiCoUisTgSAWkFPjvP5YIBjmOp6YJ7NwF7Ny9+KJRsfx5KsJicgJoaQE++5QTwPQ0J5dolBNaw3Vg5y5OIKEQff2NNykUxjyAz88bdlUxUFzM/925rFHf3gYc/5z/x9OaTCaa/DdvBdZVsrxsOATcvCFx9gzQ3iYxNcVWvzodkJ0DlK8BXnmNE+LIMHDsU6C+XqKvV0Cn4+TpyqDAWFMBFJewHv6dhEI8vovnJS5dBFqaJaQUsCZxQs/N4/6vq+TkPDIMnDoJXKsDBge5yo5E6JLIzARe28d9S027+7N0utszI/R+Tsw6nYAQEhbL7fsY8ACjsWObmqLpcniYx+x2AyuKKG7Gx4D9b3NyHx7i/t1okBgcEDCZeHzhMK/B1m3Axmp+PzwE1Fzm9QQodmZmGHBpNgN1tcDrbwBrK/nz6Chw4zrvi9ERCh+DAai/xs++dJGvS0tbXFhMTgLdXcDJ48CNBmBoELCnAE6nxJlsoHi1RGmZwMpVj37vKhSK20lOBtauA/7ojwWSkgCTmZYKrxcwmfi8VayltUIJ+5eTpyIshgaBM6eA/+/7EjYbkJUJpKYDXZ2Ad4Z/S0sTyMgEpiYkDv4GOPoJMDjACUurA8ZGOYEUlwBv7BfY/xbN+Uc/AX75kcT0NFBQwM/zeGLZGv00jRcWCYyNSZw5Dfzoh4B3FkhNlXC6ODH5/ZzwCwsFXJlAfT3ww79krIg1SSIzk8JoJiaI3jsgoDfcbg2I4/MBba3Az38GfPoJJ8Z0p4ROx/1PSQY2bGIcQ9FKCqK/+H8lRob5gK5aRavCyDAwMABoNQIpKYsLi4cl4Od2L5yXaGul1cKeTNE0MgKEIwL1V4HBQYlZLy0tN28Cf/2j2LmwSpSspiDo7gKOHuE10ukEXC7G1TQ0AIcPSQQCjBjPcVMATEwwMNRsFsjKAXJzgZYm4PAh4O/+WiItjUILoDiZnuZ9s2377e6cOFJyMPv0E+DDf5To76N1JzUduHmD4mhjNXDgfYkct4DRqFwjCkUiSE3jom3zVv4cidD16vMLCMFFnXrWXm6eirAYHOJEFIkAX/06cOB9IMkmcPwYcP4c0NYqMT0DdHQAN64LXK2TkFHg/Q8EXn8TyMrmhPj3fyvReBP4yY8lVsVWoVfrOEG+9Tbwh39M5/35c8A//Zyf553hhHrqBHDmNDA1DXz5qwI7dtJV0NwEHPy1xOVLXCHrDED9VU70G6spItasZR38a9eAH/8tLRE2GwMn72TMA/zut7S4ZOcAf/wvBIpLAK2G6ZI//1DiyiXAkSrx3hc46fb2AJXrBV55FXjzLWBuTuLsaeC//Dkn8b5+oGJdYq9JaiotL7/3LbpdZmcFWlpuf83AAK0HgwPA9p3Al74ssGIFEAxKXLsK/D//N9DTDVytldi9h+c+GqF7Y8NG9gvYtYeR42dPA//1B7x+DfVAdnYsHuRzfv+d/4HBpgDwm18JnDgBDA3Ke+6/3y/R1Aj87Ke0nnzhfR5Lkk2gpZlWkJrLEidP0IVVWobnKstFoVguaDSA2SLm3R5KVCieirDQCEBoAAEKjIbrQG6ehDtX4I39wLbtQGkpJ+/Ll7gSTXMCb79LH3tqGs1sVy5zIuto52us1oUgv74+oK4GyM2nWf/AB7QulJZx4mlroy8/KYkT2Jat3K7TRR9htpsuiuvXOfEFgvQPGo2xIi8x/6FGA3R3MXbiG/67j3V6Grh0gav37Gy6Kvw+Hr/BwCBQr5efsXs3BUc0CowMS7S1CTQ1Ak6nwKpiiT/4I+5TXl7ir4krgzEPG6uBzGyBMQ/P4a2kpgJVVcDv/4GAO5cCLyrp2vD5aA3y++hWiRfokmAg6OpSYM8rdOP4Yq8Rgq6RsZhFqbuL53bTFmBDNbB+I7fR3899aahffN9ZLEugr5cZOXl5dH8FQwLeGe6L3S7h9QK9vbxfClYoYaFQPAmE4Nio3B6KOE9FWDhSOdmnO2kV6OzgxFO9CSivAPLyBNLSuTpubpSYmwPKM4BtOySsFgGdnub6khL65JsagTGPgNkCFBZJ9PYyKHRgQGLDRoF1lVyNZ2UxaDASof/f72Mr35WrOLECnPz3vcEufNnZtCr09ACIxQc0NvILAKanKBTmZoGhAYlw+O50DRYIoytAgvvV0rzw93CY7hHPKBCJCCQ7gBWFEoODwPHPJHq62bhnTYXAG/vphklxJP6aOF1A2Rp+flLSgnC6laxsXruycl6zxhvAxCTdUl1djIMwGm9/j0azEEBZXCKh07EeRqqD4gpgLMXgIMWG1QpsrBbIyloIUi0uwbxFajGkpGtlfFwgEJDQaOnK+fwz/j0UlPDO8HgiYbpFwqr6nwIL2V5LqVSr0SxMmEvJBHvU/ZFyoTplPDA8GmEmll7/ZD//aRDPkAuFOH7GF2h3EoksrdBfHK2W2xPi8c+PlCzqCPH0rnk8Y06vT8wxPE88FWGxclXcsiBQc4UFnY59yiY1aelccf7+HyxMbGnpQEYmYLUIaGN7KATgzhPIcQO8HEBREVfEGRkCF85L3LzBYlWff0ZXRcU6gbffYWDo0CAn/dy8u7M67HZOcHo9V+MT47QueEaBxpsL5vhImJNwfgEnzgdlh8zNAq3Ncv4YAAqLuA9Sp+ME+m//D4HTpyTqaoHmJomWZuDQbxnA+eWvsRhU1frHuwZ3YrcD7hzAaLj3a6YmgRs3gH/4e4mmm3Tb6LSAK1PAbAaMJgn9He+3WBhgm5HJQK7FHpZIhOcmHGZamtN5e+aL3c7Yj6UgJWNkhofoHgGY3RKJMPi1YAXvp8VqdyhePkIhoKsDmJ178GttNop6h+PJlY+PRJh1NTgoICWQnc17eGYGGBoUyMqWSHHwWXpRCQZYMHFwQMCVIeFIZazVncxM0x2+VJKTgczMxGR/BQJMLNDpn941HxoUiEogK0vCbBHLqkXBUzmUgJ8TQF4+kJEpMOvlCr29jUWPLp6nTz4zixN6vAdGvJ5CfAIfHwPGJySEAJJTJMwWxga4c4FXkwS275AYHGCgZVMjcPmiRE62QFk5a0JAcLKM17uI097O1XhKCs3wJhP3t2Q1J/X544ittH1zQGaWeGAqVXo6YyZuTa/s6uJKPSUZSEun1UOrBdZvEFi5SmJinDEXrS204Jw5JZGaKhIuLHQ6Huf9/KHt7Uz5rLnMB23XblqBnBm8PvG4mVvRani8BsO9i2xpYrUmNBreG0ODEj7fwkAzMcGvpaDRxFJZqxipDsSCyXy8v7JzBApWMFtGofDOAL/6JeaL2t2P4tUclzZsfHKTjN/PMeXwQYlIFHjnPbqMm5uAjw/z56r1AplZD7fdYJBj4PQUrYqryxaCo582k5MC9VclDh4EXnkV2LRZwJR99wq9s4PB9UulYq3EG/sFsrIXT+F/qH2cAH7xc56j9bFr/qQq+3LMAw79TiIc5jXOznl21+dJ8HSCN2MiYnyMQYCrigVmZ4Fjn0ocOQQ0NQFdXSz9nZoGNDVJ9PVRIBQW8oT7fEBTI33qRhNXueEwJz2tjiJgy1aBkWGaxGe9EjcagO5uiclJMb8qHhigf39mhiJmbg64cA747a+ZAjozvRAsWlQEvP0uU0WlpAXj9Clg1svJdTGLhVbH/Y2Euep+7XWBnBxaY+bmgKNHmWGxejWQkiwxOiJRUyOwZg2wew8nQVpegJ4eZm80NUpwuHm6dHUyXmRyAtizV+Db/4yBkOEQY2H++98/motBp+e5sVh4Xa/X0yWWns7z19rCQeZeCMHBMl5wKzmZ7z/wgeA1nQX6+iRmZ+liy86hZUSh8M4Ch38n0XCd95/FwuJ1izE3Rxfd2gQHTt9KKAiMjwlcuMBJZus2psFfraOlMC9foLAIDy0sAn5moQ0O8r3PcuKangYaGgR++g8SKckCq4q5T3cKi5FRBnTfytQkF3RC8Dm/9TmWkrFyTiceG68XOHVSIi1NID0dWLv28bd5LwIBYHhY4NOjEgE/XcGpaUpYPDRDQ8zU+ORjCa+XK/T8fMZPGE2AEBJGI83nGwxU2r09nLje/4C/b28FLl4ARoaYqpjsEJicAE4clxgaZABgbq6A1SqRkgKYzAIarZyf6FcUCbS0ULB8fozOlBWFFCbHPgVaWyTeeJNpkxACnx6RqLkC/PqXEtt3CYSCtCD8t7+UyMgEXn0Ni8ZY2O1Mwzp/lmLq4G+APXuBFIdEzRWBf/o5M07Cb/OzPB7gN7+UuH5NYMcuHq/BsOAKMBrv7654WlisrBERDEicO8fjGh1hDMbDYjLRJZWXx/odZ8+w3sZAP7f32VGJq3X3fr8QvAeGh3mu2ttp9crMYu58TzfTUE8el9i0RWDb9qX51BUvD+5crko3Vot7ut0yM+n2fJIdiw1Gxp7t3CUQiQDpLgr5x8XvB06ekPD7H97a8awoLQX+3b9fGFOjEeC3v+HiSq8D3j1AkRXH7WYSgGkRt8rDYrMBr+0TSLJxDFELkcfjqQiL7CwKCSlp2u/v48PU3UXXRWk5UF5Oi0EwSBFx/hxfOz3Fiz46ypX+ymJg/1usrDk3y8Hh40MsPhUOsShUfz/Q18uU1PI1Aq4MYNMmujBklHEMI8OsyjnQT9dEaSkzSJJsgM0m0RHLIvnoF8DVqxKRCK0YHg/N7uVr7g5cBLjqfvc9BgJdrWNNh+Ymroy6u/m57ly6NjKzBCJR1oYYHKD1pqeblpj+Pq7mt20HNm56Nv7VHDcL3XR2AlcusbKeQc+Mja6uBVExPs5MkKWi1fDc7X2NVp9r14CONt4XKQ6e9welrBlNvGe+8U3eK3W1wPS0RLqT5t+uLq5wCmL9UZZzIzzFw5OcDBStEtiy9fZ+OrdiMvO5jd874RAwOcUxwDdH12l6OlfOjTe5nYxMxmu1t9H6mVfA8csQWxyMeTiWeUYZpJxko5s2OYXi90Gl6Ge9fP/o6EJmltXKoHTGn3FMu3yJY0kkItHVKXDjBrebmcU4E4+H49nsLOvNpDsZ0H3rczI5yXiz2Vm+Vwh+n5ZOK4HFwp/HxviZ4TBdRlYrRZkjlePFUkl30t0aJxIBrl7luTIYGGe2rnLh79EIMDbGisAGI6/H6CiFYFbWwjmdmeH+zXqBcIT7lObkObNYYsGasa6sFivfrxEch8Y8fE0wSIvz7CzHL5udY4vZcnvQezDI+WRwgFYjp4vnwx+g+y3HzTg1ee9Met4fI7xGFivgcnEh9iKRcGFhNHE1YLPx5tJqaRnYug24dpWpfxfO8+bWaul2eO11+rVWl3Ibr7zGm/TkCXYPBXjDunPpo/vWt/nQz80B77zH4ldXLrMCZyTChyApCdi1R2Dz5ljlxkoJvZ5BhzVXONlPTHCAKS0FtmyjOyXFwd+1tlKs9PTwAdVp2fSrrJzBoBs2cuXtSBUoKOBdYrfz/Xtf4QPp99NXOjhAR4beAKwuFdjzCrBrD2JFmwTeO8BV+o0G4JOPedMZjbxxX9snsHXb0s69RvBhysvn5Gq5o1qlPuaCKFpJcWM2LwxiWi3jKPJX8DiNRoq3Hbt4zbq6gMO/42tTUzkIFBVRVNhsC+c8I5MP352pndYkun/y8riPQgDr1gFJVsDpErh4gSLT7wccDoFQiBVS4wjBh0ur46BmMNAH/s/+QCAQlKi5TOsHwIc9PR3YsYvn7l4Th+LlxWhkplJOLsepB+H3caC/0UDRMDXNLLLiYlo/Dx3kmLB5y0KV2e5uLoLivWsAumKv1gFXa4Gv/x4XVaEgTf7xrIjFrGtS8vO7OoGbDdz29DQAyTGntIyZbU4Xx6vjxzi+RaOs/puRwewsRyrQ0y1xswFobBSYnub4WLCCqe1ZWZyg9QZaJG80LGTJAXze16xl1p3dxnTulia6s4PB2BhjB9ZUSJSVAfkrlr4oslhoIYoTDjMWzWymcMjMuv3vfb3cv7o6jl85bhYndLp4LQqLGFPT0kLhNznBbWp1HNvK13Dst9lj2WPjQDBEwRaVPNdXazl2eWeA8QlgZorZbU4XUL1JorhEICOWYeidoRhpbmJhwdkZzn1OF11wl84zBb+gcPHj9/kYLtBwndvo7uaYvHIVRZU9mefc+gJ0dU64sHC7gX/5JzTrGU2A1cILUbZG4D/8J2B6SlLhDvBGd7p4QzhuSancsUugZDVrUUyM83eOVCo3p5MTZlypF60E/tWfCHjGqGwnxgGzWSIrm69PccR88iaB0nKuIA58UaC3FxgaoAUkrlSTk3mDut0C3/sfgXfeBfoHuDpJTZXIyABsdoHUVAobjQZ4dR+DkQB+VrxYzNvvAdWbY9VFvfHS4RKpqTzW+EDjdLHM9dZtrCXR389BxGbjeUlLX3oQkd7A+vyVVYDfz6CmW0lNo8uoaCUrUTocCyY/axKPZfMWuniysnksO3fR6jM4SPUOMFXX6aLYCsdS4hwOlupeuQoIBMRdKbJrKoC/+humCNtsPB/X6wUGBlhPY/deCh2hAVqbGWNy+uTC+7Va4E/+lIKDViX+buUq4N/+O8F+MZ2x/XPxgU5KUg2QFImhsxM4cZzF+SYmuGrV67nY0Ru4aNLpBFav5vNxtVairg6orGR8V1xoDw5wwfK7gxLbd7L6LmO3GGOxsVosKiwiYeDXv+Rzcb1e3lbDJxziAm3DRuB7/1xgfJyuXd8cJ8jREaC3R2J0mJ//Vz+k63B4WMJu5zMcz6J694DAFw5we6MjdBUf/1xifIyTbiQC7HtDYHKcFsLzZykq4s9uKEhLTY6bC8T/9V8/uWsyMcG6Q598LDE6wvlgaprPvscDVFUJXK0D/ukXVEVWKxeDQ0N0rawqAf703whUrKVV47OjEmnpAsl2LiC7OoEjhyWGhnhM4Qiv49wcF8Y//0fgT/4U+MrXuD9X64AjHzOGx+9faHqZmgZAAAN9XESlpi5usehoB372jxLnztBirREUQUYjx7vX3xTY+yrjSp53Em+xMDJQ6E4sFsCSB4RDAj4f1aTRtBBAdWsgj90eL4XNizj/fsvtprp4vnF2Tuy1eXy9Xk/REs88APh/fBsAJ8IVK/g+wx0xDHF1bLNzlRwKARYL/W/xnOM4KSkLTbjixMva2mzcfjDAz09OEXd1aNXH0ptSHByQctxcHBiNFDoPgxCxVM17FILSxeJNFgsS0moXPxZ9MpWy00VLBMAJe7Eo7LgZdDEsFtzVs6O7m9UxG28Cm7eI+dXIzRusxmo0AmlpEikpTFtd7L4ymzm4pzgWTME226PFfiheHnp6gCMfS3R13Vu473lFzJvmr9cDRz/moqiyasEk39bK+9UzGkuhjmVJeWdphYh37Y0TDC4UiQsEOPGHQrQwxrv03hnU6PcxCPPyJbp4i4sFNm6ipWFuTuLcWVopLpwHvv5NPmfvfoGTUyQKrFkrsH0nF0Pnz7HKcDDEI0FwRQAAIABJREFUBdG6Su5fX5/EpQvAic8ZKP7134vtV8yN4MoAVpdRJK0q5sT4+Wd0lxStBHbvYQrpyAjFRn8/C9wNxhZmT4JwOFYeYILHk++iRSC/gGPtpYtM4Q+HgS8cAApi1pPGRqD2CtP6W1s4rkQisXR6PeNSopLp6+NjdGGsWQtUb+KCq6MdqL9Gq097G+MB9Xrg3Fng/FkJs5kLtBw396+2hnGDHg/vkTsz6QDeK81NwNGPeQ+VrxHYuUsiFKS1uLZG4MRxWt1LyzjOPs/pqU9913R6wKZfvIHXrej1nFiXOrkaDPy6c2K8Fzb7g/fBar33RLkU9Hqa5JeK0cgJ/Hnkcc/FYkSjDLw9f45+2riwOHdGYqCfq4a8fAa+PigrJinpyaWHKZYfI8OczOuv3jumITUV2LGTE2zjTU5SBStYEfjA+3zNz37KiUc8ICbocQiFKEa0WonCIlold++h23F6SmB2TmJ4mK6BgJ+xG8nJAh/9glaQdZWMXejoAM6dEejpligto0Vh2w6u3pubBVpb6I71zUnsf4uTq5SctCvWCXzjm8zSA+hakJKt0bduA75wQMQCqVlOYGQEGB5hWuXTmABdGbxWH3wZyMoWGBmhS8FkArZuB77xLYG8fE7gWdkssNjXJ9HTTffDvcY2iXj2icAffo+uopoa9npqvCnhGaWo0+uBa1cl+nqBN98GPvgSLbh+v8B/+XOJ3p4Fi+9iDA1SWNxoYEzd1m3A139PwOejEBwaYnPOtDSJkWGB7BwlLBSKRdm+g5aIQwfZDfaTw/x9RgYV/xfeF1hbuXiQrELxOKSlAytX0i14rxoIq0s5qQ/0c1LQalkRNy9vIX5pRSFQUspOyE8KqxUoXAn8n/9BYGKCZvmREa6Cu7uAK5c4MT2IcQ8tgX4fj2t0hNlTQtCFHIlZTMbGAK9XIhRcEPMrVjCGw2AAIGktKS1j2YC5OaC5mdaJ9rZY4OoMY53mZu+O9XoSZGezYWFGJhejVivwv/1rAa+XxxsMstllexuzyDo7aDmYmKAl9l7CQhcL6szOphU7HuSZlUVXMMC4sLi7JDmF+5EfC9pNisWWrVpF4Xcv2tu5bwBgNFKY/dNHAjIqMDS08Lp4m4LU1MQv9BKJEhaKZ0aOm6uM9HRWGZyZ4e/T0mi9WFNBN8xyKnWreD5ISwPWVgrs3nPvzsF5eZx8ZmY4eegNvC8dt3TvdDoZV6ZbpBZGNMr3LWb6fhgkgHBY4nr9QgB83EWs1TKI835ZBnHCYbpfdHoGGra1LrwpGORzlp7GY5qbjR2zjs9natrtE9mMlwGKDfUSnZ20/kjJTI1wREBAApKumKXs2+OSlkYLZzz2KhqlG6f2isCVyxLTUxKzszxOoyl2TSTF1P1S0XU6Xm+bbcENr9XGvo+NS3GRNuejhSTHvbAfAJCRxQqq98v2Cfh5vgG6jvr7gIlxnri4MIrH6sTdZs8zSlgonhk2G2AroelWoXia2O1chW/cdP+skNnZ2OQTWeiDo79l1DQaY4GLi4jfcHihwFOcaPTha6r4fbQG/O63wLkznDAdDq6ic9yAIwWYGGPg4oMQIhZ4qrs9tdVgAHJyYoHZTkCrYwC+Ts+fbxUVgQDQ2w388iOJ+qvMtkhxxDJKHJy4n3YdCGvS7TFYgQBrCR06SFdrWtpCSq3LxRYAA/0P3q5WG0sXvs/xRKNMJ42EAYiF1Nw4BgNgMArMp9Y8AL2e91m8zYFez3NqtwP5+bGKyc95wzclLBQKheIeMMuL1gq/j6v8qg0Ls8b4BM3gi1klfD4GiXq9C78LBFht8WEYGwNaWwUarrM3z1e+JvDmW3TDRMKc4H2+pQkLGeWkW7ke+Fd/wgw2jYYWkOv1/CyLhQGZc7MLQe+31qMYGQbq64GzpylG3n6HrQucLmakHD1ye+PFZ8HcLPCbX7FS887dAl/8El1bVguDxr0z7H+UCPR6CheTmZaLluaFOh4Am2P29ixdUK7fILD/babDArRI9fUx0DQ9HahaL2G3P99mXCUsFArFS4ffz0m0p/veWQs6HQVFWjpXukLD+hS3+s/rrwIN1yWCi5S2984wNXT9Rhbpm5xgXYTWloezWkQinPh9fu5TZiYrzyZZ6ZtvbWF9jMUI+Bk/MTxMgVS+lhNrdzdw6RILhBlNsZTXk8CMV6KwUEBGYx0+cfcKHIICZW6Of0tLpxCJRDip1tUw/TNjCfVBngSRMODzLbg+DHoJtxvIzKS7tbaG7qREYbUCZeXsRN3eBnz6iYRGIzA6yqJcF84ye+h+13xFEcUDALS0SBQWCawopCVmZITtL3q6mZH02r7nv0W9EhYKheKlY3ISaG6WsFjuXdLbbqN5ff1G9jcqLpEY6AOuXJYIBgUcDqZvtrbc3TMnJUXAaJJoagQuXZTw+7iab2+nK+Nh4g6MRq5UbUlMYx0aYsYDwCyCpkaKB42G1hHfHIWAyUjB0NYmUX9VwJXJejn1VzlJ/dMvaFUxm1mz4cTnEskpQE6ORFTee0VsMcdS5FM4cff2shfIxBiLVbW18RjTndy+6Sk3AIzGzq3LxYyPkWHWxpmekhgeETh7SqK3l26eUDjmwngMzGZaj+JVitvaAPNJibZWAa+XlqDxMV5zjZZf0TssXAUrWKCrYAVFz7HPmFqa4mDvrCOHKSqLVj7Zlu6JQgkLhULx0tHXS7P1qeP3Dqpz5wLbd1BUvPIqkJYucPh3ErVXWNBKo+HKfbFqmZVVQHubwKefSPzNXwGOVAlXBlBYKLBxI0v9LxVXBl0Xn3wMHPsM+Lu/kfjZT/m3aBRYUch+IAP9rChcWEQh4spgtsaJY4BnROIrXxd4dR/rbhw/xl46ly+xEJMQTL/ftQf48lfFfdP2Uxyc4CrXC9TVSPzD37EIVTTCgnSl5UxR9fvpCnra5fR1OiDFIbB9BzA+LnHxPNNjtTpAp2Wvp5QUxkXMzLBZ4eOg0dKl9MUv0/Jw5DB7HR3/jEItXnJ9KtZp1mSiq+ZW7DbeM3/4PYGf/VTi1Am2UdBoeTxmM6tM73udlieNEhYKhULxfOBwAP/iX7IL8oOw2yku4oXxqtYDNhv7/PT1sspkJMoJ/eNDt7+3aj0nkPIKgalJwGxi4arMLLoMdu4WWL+BPv/CIuC732PFzaKVfL/BCDjS2JIgO5v78pWvCVSsY+Ch10sTf2oa9zEaAaanuc30dE5m3/gmfx4ZYXpiSQkDMb/wvkBxCVMuZ71099iTGXy5poJFAQ0G7svb79LKUVK6cGxaLWMrvvVtYOtWVs/1egG7jZN2QaGAZ5SvLS3jJJ7jZgGtdZV05Sxlxa3RAG/sZ8q5VsuaNrfidgP736bwu/VvQjAuZNcewJUhsGuXxPgE2yckpzDbR6PhdUhNY/B4qoOVfc1mXierlQXE4nWU4vEOAF0/W7cD//4/ChQXU8DNzvK6QLJi87ZtwJyP22tplqiroSXD4aAbKxQCvvtHApEwz3O82/O+N3itOjqAyQnB+8BBy1lZGStHP6iP0vOAkPLBRrklvEShUCheCmZm+BXwM27i0kXgP/9Hia99Q+Bb3+FkqtfTkjE5ydfodDRzP+6k4PNxm1MTjI1wudjd814+96lY0zSAE3xaLLV2dnZh34zGBdfGwxZdmpnhNiYngbRUwJEmYTKJ58ZUHwoBs7MSw4MCWh3rTKSkJNaKEr/ORw4zTXTHToncPFZqDodozfn4EEt+f/8vxHwJ8Hvh90tMTrC1ujnmdnI9hcKJIoEXTVksFAqF4iGwWrm6lPL+NSri2QKOWL+iRKw0TSZOMunpsdRR7f0ncZttIVX01s+3WGLbcmI+RfJR9s8a6waakck0Vs0D9udpo9MBdru47RwkesUfv879fRKHDgJ1NbSWFKygqDv2GWMvVhUvrTK00SjgdNGakqj75mmjhIVCoVA8BLcO9Pcb9DnxJzaC/2G3ea+JNFH79iQm6kQixJOfnOPnsqxcoL9foqsjlhmiZWDo7KxAZZXE/reXVrPnSdw3TxslLBQKheIRMZnYe2LLNsZKWK3Pf8S+4smwdh3dCRcvSHR20D1iNDI+Y0O1wDvvypem27KKsVAoFIpHJBJhEOfsHNM7jabnuzmU4skRDjOmIhjk91HJOiBaHQuMmczPu3UncYpYCQuFQqFQKF5yEiksnmP9pFAoFAqF4kVDCQuFQqFQKBQJQwkLhUKhUCgUCUMJC4VCoVAoFAlDCQuFQqFQKBQJQwkLhUKhUCgUCUMJC4VCoVAoFAlDCQuFQqFQKBQJQwkLhUKhUCgUCUMJC4VCoVAoFAlDCQuFQqFQKBQJQwkLhUKhUCgUCUMJC4VCoVAoFAlDCQuFQqFQKBQJQwkLhUKhUCgUCUMJC4VCoVAoFAlDCQuFQqFQKBQJQwkLhUKhUCgUCUMJC4VCoVAoFAlDCQuFQqFQKBQJQwkLhUKhUCgUCUMJC4VCoVAoFAlDCQuFQqFQKBQJQwkLhUKhUCgUCUMJC4VCoVAoFAlDCQuFQqFQKBQJQwkLhUKhUCgUCUMJC4VCoVAoFAlDCQuFQqFQKBQJQwkLhUKhUCgUCUP3rHdAoVAoFC8+4TAQ8AcwNT0Ov98HnU4PlzMbBoMWGu2z3jvF00QJC4VCoVA8NnNzQQwNjqK55So8nlGYzUlYX7UdGRkpSLIZodUqdfGyoISFQqFQKB6bxsZrOHbsGI4cOYyZmRloNFrY7Sn49re/hddf34fMzExoNMr7/jKghIVCoVAsM6LRKCYnJ9HT04POzs5FX2MymVBSUgKXy4WkpKTH/kyjUQ+Xy4Wqqs3w+7zoH+jFqVOnUFxchLy8XLhcLiUsXhKUsFAoFIplRCQSgc/nQ2trK44dO4bjx4/DbDZDSolwODz/GrvdjgMHDqC6uhqFhYXQ6XQQQiAajSIQCEAIAZ1ON+/CiEQiCAaD0Ov10Ov1AIBQKDS/zdzcXGRm5uDLX/o2/P4pHD9xFJcuXUJbWxtu3LiB7du337YP8e2GQiEYDEbodLrYz0FEIhFEo1EYDAZotVpoNBpICYTDYQSDAQCARqOBVquFTqebFyx8TQihUGj+b/HPkVIiEonM/81gMADgNsPhMDQazfx2gsEgtFottFotgsHgbZ8VP4ZwOAwpJTQaDQwGw/x7o9EoQqEQotEohBDzx3A/4tuLRCKxc6OD0WiEEDwmKXleotEIhBDQ6/l5QmD+HAaDwfn9i0ajt52bYDA4v22j0XTbe58ESlgoFArFMmJsbAyNjY348MMPMTIygpKSErz77rvw+/1oamoCAHg8HgwNDeGjjz7C4OAg3nrrLRQWFsJsNmN6ehqnTp2C3W5HYWEhsrKyEAgEMDg4iGvXrqGsrAxlZWUAgLa2NnR1dQEAiouLkZubB41Gg3Bk8X1rbGxEf38/ACAjIwPhcBgtLS2o3rgDbnc+AOBmYwP6+3vg9XpRWVmJ3NxcJCcnI+CX6OjoQk3teQCAw+GA2+1GUVERbDYbpAT8fonWlnbcuFkHt9uNgoIC5ObmAgB8Ph9GRkZw7do15OXloaqqCgDQ1dWFjo4OJCcnIzU1FRqNBteuXUNWVhacTieuXbuGpKQk5Ofno7CwENPT0+jt7UVLSwuCwSAcDgfWrVuHtLQ06HQ6TE1NoaGhAcPDw7Db7Vi7di3cbvd9r1lPTw+6u7vR19cHAMh1F6C6egdMJgEJYG42jMbGeoxPjEKr1aGstBJOlxNGI9/f2dmJmpoauN1u+P1+eDweuN1urFixAmlpaairq8PQ0BAAgc2bdsHpSkNMVz0RlLBQKBSKZURvby8+//xzdHd3Izs7G+vXr8fg4CDGx8cxPj4Og8GA9PR0pKen4+TJk7h+/TqSk5PhcrlgNpvh9Xpx5swZGAwGVFVVYd++fejp6cG5c+dw8uRJeL1epKamITk5DZcv1+LixXNYtWoV3G43pIxieHgAZ8+exaeffopgMAiXy4WcnBxoNBo0NTXh7NmzmJycRFZWFiKRCFpbWxGN6tDb14f2tjZ0d7dhcmoc0WgUjY2N8/vQeLMN5y+cx6lTx+ByuWAymWA2m/H7v//7CIfD6O7uQW3tdbQ0N2FgsAdJSUlwOp0oKCjAnj17oNfr0d3djSNHjmDbtm3zwqK7uxtnzpxBfn4+8vPzIaXEoUOHYDQakZqaiv7+/nlhUV1djfb2dty4cQMejwdzc3NIT09HJBJBcXExgsEgjh49irGxMczNzSESieDmzZuorKzEnj175q0ycUZHR9HQ0IDLly+jo6MDXq8XPp8PFRWVyMnJh94g0Nvbi/Pnr6C7uw0zM5PQarXIy7uEynVrsWnzeqSnp6O9vR2/+MUv4HQ6kZSUBL1ej0uXLiE9PR0ulwutra0YGhqClIDXG8DmzdUoKSl6YvegEhYKhUKxjOju7sapU6eQnZ2Nioq1yMvLww9+8AOMj48jIyMTVqsVWzZvQfmaNRgfH0dzczNOnTqFffv2wel0IhAIoK2tDR6PBxMTE6iurkZDQwMOHjyIc+fOwWKxIDe3AEWF5Th//iKOH/8cWVk5iEYlfD4furu78atf/Qoff/wxAoEAMjMzkZOTAyEEOjo6cOLECbS2tiI/Px8WiwUejwfFxcVobLyGDz/8EDabDXa7HcnJyTh06BBaWlpQXl6OU6eP4ejRo7hw4QKqq6shhMDY2ATee/c9BAIBHDnyMX7+859jenoaTqcL4+PjmJychNVqgc1mQ0FBAfr7+3H69Gmkp6fPn6/+/n7U1NQgHA5Dr9cjFArh5MmT8Hg8SE5ORmZmJrRaLVpaWjA0NITa2lq0tLTA7XZjdnYWycnJyM3NRTQaxeDgIL7//e+jqKgILpcLvb29OHbsGLZs2YLNmzcjKSkJ4hYfRE9PD3784x+jpqYGXq8X2dnZGB8fh8lowuBQD3xzs/j8+Of44Q9/CJvNBoPBACklpqd/ix07dsBk/h6qq6vR09ODI0eOICkpCRUVFSgvL8fhw4djIjAVdrsd09PTmJ2dxczMNCwWnRIWCoVCoVgafr8fwWAQ77//ZYyPj+EHP/gBTCYT3n//S9i75zVEoxrYbHaYzUZ88YsG/PrXv8T169fnYx/sdjtef/11HDp0CPX19Whvb0dtbS2uXLky7045cuQwiopa0d3VDocjDa/s3Y/8vEIYDBpkZGSgqqoKAwMDqK2tRUdHB5qamuYtBHG+/e1vY9euXfB4PNBqtbh06RI8Hg/eeecdrFu3DkIIjI6OYnJyEjdu3MDMzAwAxlZkZ2dj29ZdqKjYgNWlq3D69AkcPXoUubm52Lp1K/btewNebwiHDx/E4cO/RkNDA6LR6EOdx+rqauzfvx+bNm2ClBKtra346KOPYDAY8MEHH+CDDz6AxWKZj2e4fv06rl27BpvNhg0bNqCiogKjo6M4dOgQxsbG4PF4oNPpYDab5z9jdHQUx48fR2VlJXbs2IFXX30V4XAYJlMSUpIz8MnR32BkZARlZWX47ne/i/Lycvj9fvzoRz/C2NgYjh07hsLCQgCAxWLBt771LezduxcZGRloa2tDd3c3CgoK8N3vfhdTU1M4fvw4ampq0N7e/ji32ANRwkKhUCiWEdFoFJFIBGlpqRgZGUZPTw8++OADbNu2FWsqyhAJM5BRyihs9hKkp6cjFApBSgkASEpKwvbt23Hjxg0cPXoUH374IRoaGhAMBrFu3TqEQiGcOnUSN240YHZuFqWrS5BfkAubLQkSYaSnp2PXrl2IRqMYHR3FzMwM+vv75yd2k8mEzMxMrF69GtXV1ZidnUVtbS2mp6fnAxCNRiOi0ShWr14Ns9kMIQQqKyuh0WgwNTWF0dFRjI6OwGa3IBQMYmhoCF1dXThw4AA2b96M9eurEAoCvT0dOH/+JNrb22G325GZmbnk85iVlYV169ahqqpqPjBzaGgIBQUF87+32WwIh8OYnZ3FxYsX0dvbOx9sqtPpYLfbsWrVKtjtdoTD4dvEzfT0dOw4RpGTk4MNGzbMi69IBJibC6GlpQXDw8OoqKjAxo0bsXbtWvh8Ply6dAmnTp3C5cuX8dWvfhUAoNPpkJeXh+LiYjgcDrhctNpYrVaUlJQgHA5jZGQEZ8+exezsbELutXuhhIVCoVAsM6SU8PvnEAz6YTAYsHr1auTn50KnA5igICClBgajFcZ4BGAMs9mMiooKrF69Gp999hl++tOfAgAKCgrw9ttv4/Tp0zhx4gQAYPfu3di0uRp2uxH+wOx8BkV5eTlCoRCOHTuGUCgEr9c7L1zMZjPy8vJgtVqh1+uRkpKCubk5TE5OAgCGh4fR29sLk8mEsrIypKSkwG63o7i4GC6XC16vF8ePH8e586eRlp6Cbdu2Y2bGi2AwCKfTieTkZIRCQYQjYegNAlarFePj45ienkZ2djaEEAiFQpidnYVGo0EgELhNWMUxmUyw2WzQaDQwm81ISkpCOByGwWCAxWJBMBicz54xm80IhUKYnp5GKBTC1NQUxsbGoNFo5vc7/rmBQABSSkxOTmJmZgZarRZJSUkwmUwIBoMx0ScBhNDb2zXvjtJoNPPWqNTUVOh0OvT398Pv9991/YXgcZtMpvnf2e12ZGdnz2fDPEmUsFAoFIplhhAamIzJMBis8Pl8OHnyJOx2OzIyMhGJAKEQEApF4PdPYW5ubtFtFBYWorq6GuPj48jOzsYrr7yCAwcOYGhoaF5YrF27Frt27YLJZMKJEyfmA0Htdjs6OjrQ3NyMlStXIi0t7b41LLKyspCVlQUAmJmZgU6nQ1VVFZqamhAIBDA6OoqBgQHY7Xa8//77SEtLw+XLl/HjH/8YJcXr4HLmICcnB5cuXYLZbIbJZMLg4CDOnTuHtrY2vPfeeygtLYXFYoFGo5mPQ0lJScHNmzfR1dWFioqK+55Ti8WCNWvWYGBgAIcPH0Z6ejoyMjLmhZlGo0FKSgqamppgt9vnP6+urg4TExOYmZmZTymdm5uD2+2G2+1Geno66urqYLPZkJaWhrm5OYRCIUQiERQUFGB6ehonTpxAYWEhfD4f/H4/zpw5g5mZGezcuRMOh+NRbpEnihIWCoVCsYzQ6/UwGPS4caMeElFs3boVvb29+Oyzz+D1ehGJABkZ2bFsgiYMDAzAarXeVWthZVEJtm7ZhdOnz2D16tXYu3cv8vPzUV5ejurqakxOTmLVqlXIy8uDVqvF+Pg4Ghoa4PF4YDAY4PP5YDQasXbtWqxbt+6+tRxycnJQXl6OiooKeDwenDlzBoODgxgYGEBqaio2btyIzs5OzM3NwWg0orOzEyMjIwiFwjAYdSgsWoFdu3ahubkZ586dQ3d3N8bHxzEyMoKCghXYuGEr1pSvwZxvBikpKWhvb8dPfvITWCwWNDQ0YG5u7oExGMnJydi7dy8++eQT3Lx5Ez/96U9hs9mQmpqKkpISZGTkYPPmHWhouIHGxsZ560ZnZyecTid27dqFtrY2tLe3o6enB9/5zneQn5+Pt99+Gy0tLTh79iwmJiYQCATgcDhQXFyM0tJSaDQanDx5cj5wNRKJYGBgAPn5+di3b99tgajPC0pYKBQKxTLCZrMhPT0dFy6eRklJCXbu3ImDBw+ioaEBvb290Gg0qKioQHFxMU6dOoXh4WFkZ2fPF72Kk5dfiOpqPwryC7B+/Xps3rw55iZZi3ff9aK7uxOFhYXzVTuTkpJgMBjR3dUDf8AHm82G9evXY/fu3aiqqoJWq0VKSgqys7MB4LYgxszMTFRWVmL//v04d+48bt5sQn19PQwGAzZs2ACbzQYhBNra2tDQ0ACNRgOn04nq6o1wOpORlpaGN998EwBQV1eHq1evQggtSkqK8corO7Fhw2bk5+diYnIIZWVluHz5Mi5cuACtVg+NRiA/Px9paWnzMRN5eXlwOp2xIlXM4ogLi5GREQwNDeH8+fOIRCLIyclBUlISdu9+HW73CtTUXERPTzc6OjoQjUah0+mwceNG6PV6DAwM4sqVGjQ0XMebb76JHTt24Bvf+AY+/PBDXLhwAb/+9a+h1epRWroabrcb1dXVcLlc8Hg8aGi4EQt05fXbsmUL9uzZA4fDAbvdjvz8fCQnJ0Ov10Or1cLpdCI7mwLSYDBAp9MhKSkJubm5SE1NfaL3oJB3OpYWYQkvUSgUCsVzQEtLC06cOIGDBw9Cp9OhsrISa9euxdTUFDo7O2G32xEMBjEyMoK6ujqUlZVh//792LlzJ1JSUua3I6PA+MQkLlw4h4KCfBQXF0On02FszAvP6DimpoeRl5c778KYmJiAxzMBz+gMZucmYTAIuFwuuFwu2O126HQ6DA8PY2pqCkIIZGZmwmazzX+ez+eDx+PB6OgMBgcGMDDYiZUrV8LtdiM1NRVzc3MYGhpCZ2cnLBYLHA4HsrKykJmZCb1ePx+nMTo6irGxCZhNyUhOscHpTIbDkQ6j0fD/t3M3O42CURjHH5VOKRAtxg7FlTdg3LrwGrxfNy68DFfGaqharP0ACi8ts+gMiVaTaYaV8/9teUn4WPDkcN6jsiz08PCgwWCgePQq//BYjvNDrrvu9XAcR1VV6enpqf41YdvrSZWr1UpFUSiOYz0/P2s0Gmm5XMrzPJ2cnKjbPVRVVXp8HGg0Gunt7U1ZlikIAoVhqOPjY708T/XyMlL8+qizszP1ej1lWaY4jhVFkQaDgfxuqJ9BT/2+L8/zZIxZzyCJU83nMxVmpjAMFQSBfN///U5iDYdDBUGg/f197e3tKYoiLRYLWZalMAy1u7urJEk0HA7V7Xbr9/bHToOjOAkWAPCNTCYT3d/f6+rqSre3t0rTtN6mGEWROp2O0jRVkiQ6OjrS+fm5Li4u1O/3Nxr7jDEaj8dyHKeuTJRGKkwpY1LZdvtd8+dqJZlCKkyqnZ2VXNfd+oNlCmk+n2n89qIgCOS6bn0sTVNNJhO1223Zti3HcTbOz/MR37zxAAAA/klEQVRci0WuVsvRj5Ylq7WxRPP5XEmSyvN8tdstWVvW7pfLpZIkqSsSH+8zyzJlWaY8z3VwcFBfpzGSKYyMSdVxOu+e92Kx0Hg8luf6sju2PhSQVBTrsd5lmcl13Y1hW/+KYAEA+FJZlrq7u9PNzY2ur68/XeP7vi4vL3V6errVNkx8TwQLAMCXqqpSnueazWaaTqefrrEsqy7/f+yvwP+HYAEAABrTZLD4emMxAADAlv6q+6PJJAMAAL4vKhYAAKAxBAsAANAYggUAAGgMwQIAADSGYAEAABpDsAAAAI0hWAAAgMYQLAAAQGMIFgAAoDEECwAA0BiCBQAAaMwvZSML4PUkAUAAAAAASUVORK5CYII=;" vertex="1" parent="7">
                    <mxGeometry x="550" y="90" width="199.52" height="141.24" as="geometry"/>
                </mxCell>
                <mxCell id="12" value="" style="rounded=1;whiteSpace=wrap;html=1;fontSize=21;fontColor=#333333;fillColor=#f5f5f5;strokeColor=#666666;" vertex="1" parent="7">
                    <mxGeometry x="110" y="130.62" width="180" height="29.38" as="geometry"/>
                </mxCell>
                <mxCell id="13" value="Length A:" style="text;html=1;align=center;verticalAlign=middle;resizable=0;points=[];autosize=1;strokeColor=none;fillColor=none;fontSize=21;fontColor=#000000;" vertex="1" parent="7">
                    <mxGeometry y="125.31" width="110" height="40" as="geometry"/>
                </mxCell>
                <mxCell id="15" value="" style="rounded=1;whiteSpace=wrap;html=1;fontSize=21;fontColor=#333333;fillColor=#f5f5f5;strokeColor=#666666;" vertex="1" parent="7">
                    <mxGeometry x="110" y="231.24" width="180" height="29.38" as="geometry"/>
                </mxCell>
                <mxCell id="14" value="" style="rounded=1;whiteSpace=wrap;html=1;fontSize=21;fontColor=#333333;fillColor=#f5f5f5;strokeColor=#666666;" vertex="1" parent="7">
                    <mxGeometry x="110" y="180" width="180" height="29.38" as="geometry"/>
                </mxCell>
                <mxCell id="17" value="Length C:" style="text;html=1;align=center;verticalAlign=middle;resizable=0;points=[];autosize=1;strokeColor=none;fillColor=none;fontSize=21;fontColor=#000000;" vertex="1" parent="7">
                    <mxGeometry x="-5" y="225.93" width="120" height="40" as="geometry"/>
                </mxCell>
                <mxCell id="16" value="Length B:" style="text;html=1;align=center;verticalAlign=middle;resizable=0;points=[];autosize=1;strokeColor=none;fillColor=none;fontSize=21;fontColor=#000000;" vertex="1" parent="7">
                    <mxGeometry x="-5" y="174.69" width="120" height="40" as="geometry"/>
                </mxCell>
                <mxCell id="19" value="Calculate" style="rounded=1;whiteSpace=wrap;html=1;fontSize=21;fontColor=#333333;fillColor=#f5f5f5;strokeColor=#666666;" vertex="1" parent="7">
                    <mxGeometry x="10" y="280" width="120" height="29.38" as="geometry"/>
                </mxCell>
                <mxCell id="20" value="You have a scalene triangle" style="text;html=1;align=center;verticalAlign=middle;resizable=0;points=[];autosize=1;strokeColor=none;fillColor=none;fontSize=21;fontColor=#000000;" vertex="1" parent="7">
                    <mxGeometry y="320" width="290" height="40" as="geometry"/>
                </mxCell>
                <mxCell id="23" value="You have a right triangle" style="text;html=1;align=center;verticalAlign=middle;resizable=0;points=[];autosize=1;strokeColor=none;fillColor=none;fontSize=21;fontColor=#000000;" vertex="1" parent="7">
                    <mxGeometry y="430" width="260" height="40" as="geometry"/>
                </mxCell>
                <mxCell id="22" value="You have a equilateral triangle" style="text;html=1;align=center;verticalAlign=middle;resizable=0;points=[];autosize=1;strokeColor=none;fillColor=none;fontSize=21;fontColor=#000000;" vertex="1" parent="7">
                    <mxGeometry y="390" width="310" height="40" as="geometry"/>
                </mxCell>
                <mxCell id="21" value="You have a isoaceles triangle" style="text;html=1;align=center;verticalAlign=middle;resizable=0;points=[];autosize=1;strokeColor=none;fillColor=none;fontSize=21;fontColor=#000000;" vertex="1" parent="7">
                    <mxGeometry y="350" width="300" height="40" as="geometry"/>
                </mxCell>
            </root>
        </mxGraphModel>
    </diagram>
</mxfile>